<svg width="740" height="680" viewBox="0 0 740 680" fill="none" xmlns="http://www.w3.org/2000/svg">
<path fill-rule="evenodd" clip-rule="evenodd" d="M690.225 195.334C689.692 194.946 688.426 194.809 687.838 194.692C685.39 194.21 682.869 194 680.374 194C672.681 194.012 664.863 194.767 657.298 196.074C652.494 196.903 646.687 199.696 641.909 198.179C633.585 195.537 625.172 195.667 617.274 199.439C610.053 202.888 604.572 209.439 601.373 216.517C600.89 217.586 598.932 221.519 598.378 224.17C598.141 224.712 597.913 225.257 597.708 225.811C597.126 227.384 596.603 228.984 596.118 230.588C595.91 231.272 595.389 232.782 596.008 233.074C595.019 234.901 594.141 236.783 593.411 238.726C591.286 244.378 588.962 250.578 588.215 256.568C587.939 258.786 587.928 261.017 588.185 263.239C588.312 264.338 588.26 266.546 589.004 267.382C590.585 269.154 591.396 266.673 591.218 265.491C589.858 256.485 592.485 248.027 595.598 239.561C597.612 234.087 600.92 229.078 604.626 224.543C607.625 220.871 610.842 217.98 614.953 215.546C619.981 212.569 625.356 210.163 630.681 207.749C634.184 206.161 637.691 204.615 641.291 203.247C642.092 202.942 643.351 202.161 644.239 202.158C646.116 202.152 648.777 203.537 650.59 204.052C656.554 205.748 662.594 207.919 668.758 208.785C672.712 209.341 676.416 208.715 680.113 207.398C680.491 207.264 681.125 206.918 681.901 206.424C684.646 205.368 687.243 204.039 689.504 202.121C690.806 201.017 691.989 199.589 693.067 198.282C693.389 197.892 693.532 197.444 693.537 197.018C693.781 196.891 693.943 196.741 693.98 196.567C694.249 195.281 691.796 195.258 690.225 195.334" fill="#89C5CC"/>
<path fill-rule="evenodd" clip-rule="evenodd" d="M65.2734 302.541C63.7641 303.763 62.2838 305.011 60.8396 306.31C59.7389 307.3 57.7911 308.485 57.3959 309.985C56.9852 311.544 58.2819 313.003 59.3063 313.945C64.7233 318.929 70.8231 322.298 78.3293 322.859C89.8871 323.722 99.9457 320.77 109.974 314.963C117.018 310.883 121.684 304.849 122.703 296.701C131.092 300.187 139.205 304.993 146.1 310.891C149.502 313.801 152.432 317.025 155.142 320.599C156.878 322.889 158.557 325.215 160.115 327.631C160.792 328.68 161.481 330.542 162.599 331.146C163.912 331.856 165.499 330.743 165.434 329.284C165.379 328.069 164.068 326.66 163.454 325.667C162.436 324.018 161.402 322.379 160.313 320.776C158.551 318.179 156.73 315.62 154.744 313.19C150.28 307.73 144.601 303.221 138.714 299.375C127.42 291.997 115.025 287.349 101.283 286.955C92.8332 286.713 85.7248 289.6 78.4988 293.911C73.9999 296.595 69.3558 299.235 65.2734 302.541" fill="#DDE3E9"/>
<path fill-rule="evenodd" clip-rule="evenodd" d="M174.883 266.856C166.077 257.787 157.241 248.832 147.403 240.847C141.605 236.141 135.495 231.863 129.511 227.401C130.201 228.006 130.878 228.628 131.539 229.266C129.671 227.998 127.226 227.281 125.246 226.107C123.037 224.798 120.925 223.301 118.854 221.791C114.811 218.845 110.829 215.843 106.673 213.051C102.043 209.94 97.2446 207.066 92.5357 204.072C88.5392 201.532 84.4939 198.751 80.2185 196.674C77.8883 195.542 75.5526 194.201 73.2129 193.02C72.4298 192.625 64.4841 187.608 64.5041 187.593C64.9433 187.262 68.9418 189.14 69.5601 189.393C71.3664 190.131 73.0938 191.013 74.8304 191.893C73.8772 190.013 73.1227 188.038 72.712 185.958C72.5851 185.317 71.5685 180.644 72.0887 180.252C72.3485 180.057 74.8835 188.416 75.0133 189.22C75.1188 189.872 75.1033 190.812 75.317 191.431C75.662 192.429 75.6446 192.127 76.4047 192.69C77.7977 193.721 79.6468 194.365 81.1545 195.227C81.9675 195.68 84.4847 197.48 86.0008 197.993C90.5883 200.221 95.2382 203.649 99.597 206.495C98.4531 204.345 97.5825 202.097 96.9477 199.741C96.7966 199.182 95.1675 194.165 95.5628 193.867C96.0075 193.532 99.1117 201.195 99.2956 201.92C99.6372 203.268 99.7081 204.768 100.136 206.079C100.605 207.518 102.07 208.028 103.39 208.867C108.247 211.953 112.938 215.232 117.55 218.662C122.583 209.711 116.78 198.903 111.89 191.393C108.364 185.98 103.619 181.34 98.6077 177.289C91.9203 171.882 84.269 167.563 76.6271 163.612C67.7227 159.009 58.0987 156.156 48.0933 154.839C42.8603 154.149 37.5067 154.169 32.2208 154.39C29.6387 154.498 27.1602 154.84 24.6857 155.682C23.5704 156.062 22.4925 156.541 21.4421 157.077C20.644 157.484 18.7134 157.914 18.2545 158.521C14.4772 163.438 12.5448 168.337 12.8399 174.515C13.1189 180.363 14.9659 186.214 17.4725 191.431C20.264 197.24 23.8542 202.512 28.5497 206.936C32.1321 210.312 36.1372 213.25 40.1159 216.15C54.267 226.463 72.2082 235.433 90.5363 233.128C96.4692 232.383 102.112 230.308 107.385 227.489C108.628 226.824 109.863 226.152 111.036 225.368C111.827 224.839 113.941 222.456 114.736 222.37C115.827 222.251 118.175 224.469 119.198 225.144C126.972 230.275 134.542 235.685 141.953 241.313C149.839 247.301 157.337 253.697 164.615 260.393C167.71 263.242 170.786 266.096 173.791 269.04C174.491 269.725 176.202 272.247 177.471 272.361C178.273 272.434 178.814 271.749 178.7 271.006C178.501 269.715 175.785 267.784 174.883 266.856" fill="#C1DEE2"/>
<path fill-rule="evenodd" clip-rule="evenodd" d="M680.98 231.66C677.57 230.915 673.803 230.972 670.329 231.033C651.695 231.287 633.397 240.109 621.489 254.205C611.351 266.205 608.563 281.125 606.56 296.207C606.362 297.704 606.277 299.192 606.165 300.693C606.141 301.015 606.105 301.302 606.066 301.573C605.279 302.277 604.865 303.098 605.332 304C603.597 307.797 602.129 311.69 600.869 315.706C597.162 327.526 593.392 339.571 595.714 352C596.257 345.16 597.399 338.166 598.764 331.438C598.842 331.052 598.927 330.669 599.015 330.287C599.025 330.247 599.033 330.206 599.042 330.166C599.525 328.106 600.153 326.108 600.917 324.141C600.925 324.119 600.933 324.098 600.941 324.077C601.042 323.818 601.149 323.56 601.255 323.303C601.474 322.77 601.699 322.238 601.937 321.709C602.018 321.528 602.095 321.346 602.17 321.163C603.282 318.437 603.751 315.365 604.748 312.545C604.986 311.904 605.235 311.265 605.496 310.629C605.512 310.592 605.527 310.555 605.543 310.518C606.249 308.807 607.028 307.118 607.853 305.446C608.301 305.11 608.54 304.274 608.927 303.515C609.006 303.365 609.631 302.368 609.817 301.793C610.303 300.854 610.786 299.915 611.275 298.977C611.261 298.983 611.246 298.988 611.231 298.994C611.72 298.093 612.211 297.197 612.698 296.304C612.805 296.108 612.913 295.912 613.021 295.715C613.196 295.402 613.371 295.089 613.545 294.777C615.177 291.856 616.908 288.994 618.705 286.167C619.347 285.158 620.879 283.711 621.173 282.579C621.184 282.536 621.186 282.497 621.193 282.457C625.093 276.979 629.582 271.927 634.967 267.924C634.316 268.628 632.932 271.015 632.567 271.488C631.447 272.935 630.232 274.282 629.013 275.646C626.828 278.089 624.696 280.609 622.801 283.274C619.335 288.148 616.346 293.277 613.519 298.51C613.493 298.54 613.463 298.569 613.438 298.601C612.017 300.352 611.123 302.998 610.101 305.001C614.147 303.127 618.622 301.906 622.774 300.242C626.916 298.583 630.944 296.735 634.834 294.566C640.003 291.682 645.366 288.427 650.25 284.743C655.847 281.271 660.551 276.492 664.703 271.477C669.615 265.543 674.117 259.558 676.901 252.353C678.269 248.813 679.345 245.121 679.983 241.386C680.011 241.224 680.046 241.047 680.085 240.864C680.738 239.574 681.321 238.255 681.811 236.906C682.588 234.766 684.425 232.412 680.98 231.66" fill="#69A1AC"/>
<path fill-rule="evenodd" clip-rule="evenodd" d="M103.008 256.729C101.94 255.572 100.74 254.528 99.3307 253.783C98.9745 253.595 96.3209 252.335 96.148 252.611C95.7455 253.255 102.688 256.359 103.008 256.729M115.59 249C115.581 249.049 116.501 250.61 116.752 251.09C117.285 252.111 117.777 253.151 118.24 254.194C117.555 252.353 116.85 250.645 115.59 249M51.2451 261.709C50.359 261.994 49.2935 260.869 50.443 260.592C51.373 260.37 51.3274 260.318 51.7451 259.568C52.0842 258.96 52.2931 258.218 52.5907 257.58C53.2219 256.226 53.9379 254.934 54.8167 253.724C56.7003 251.13 58.9953 248.895 61.5692 247.011C66.0613 243.725 71.098 240.72 76.4408 239.211C84.936 236.811 94.6046 236.663 103.113 238.327C108.383 239.357 113.198 241.149 116.697 245.392C118.446 247.512 119.819 249.996 120.419 252.731C120.576 253.446 120.546 254.241 120.743 254.941C121.044 256.018 120.911 255.731 122.17 255.94C123.544 256.169 124.917 256.402 126.29 256.64C129.885 257.262 133.501 257.922 137.004 258.931C138.157 259.263 139.284 259.669 140.386 260.14C141.219 260.496 144.536 261.615 144.939 262.697C145.61 264.498 143.362 263.682 142.663 263.289C142.051 262.946 141.423 262.625 140.786 262.33C139.181 261.588 137.509 261.013 135.799 260.556C133.951 260.062 132.066 259.693 130.187 259.323C128.436 258.979 126.678 258.666 124.917 258.366C123.939 258.2 122.961 258.038 121.982 257.877C121.647 257.821 121.058 257.532 121.102 257.967C119.045 257.57 116.819 257.627 114.723 257.518C112.156 257.384 109.579 257.274 107.003 257.354C105.145 257.412 103.286 257.534 101.437 257.784C100.357 257.93 99.2942 258.143 98.2345 258.413C97.6524 258.562 95.357 258.877 95.0399 259.384C95.1762 259.166 97.7095 259.378 98.0319 259.365C99.3216 259.317 100.601 259.189 101.886 259.046C104.271 258.779 106.656 258.64 109.048 258.66C109.039 259.08 107.405 259.828 107.006 260.106C106.112 260.731 105.256 261.411 104.456 262.158C103.049 263.473 101.363 265.102 100.39 266.661C100.677 266.201 102.092 265.604 102.595 265.253C103.399 264.691 104.188 264.091 104.934 263.45C105.622 262.858 106.265 262.218 106.897 261.565C107.529 260.912 108.386 259.553 109.217 259.118C109.267 259.091 109.629 259.377 109.834 259.28C110.042 259.182 110.3 258.692 110.353 258.672C111.125 258.374 112.593 258.745 113.406 258.783C115.513 258.88 117.619 259.007 119.724 259.123C120.377 259.159 120.931 259.01 121.178 259.491C121.44 260.005 120.959 261.354 120.822 261.913C120.314 263.989 119.413 265.85 117.993 267.459C115.335 270.472 112.057 272.48 108.353 273.824C94.1688 278.97 79.0784 281.031 64.8982 275.678C59.0277 273.461 50.1866 269.501 51.2451 261.709" fill="#89C5CC"/>
<g opacity="0.6" clip-path="url(#clip0_0_558)">
<path fill-rule="evenodd" clip-rule="evenodd" d="M700.711 504.152C710.361 569.476 476.337 612.085 274.908 582.349C73.4782 552.614 -18.9281 436.493 77.1907 374.62C173.31 312.746 691.061 438.828 700.711 504.152Z" fill="#DDE3E9"/>
</g>
<g clip-path="url(#clip1_0_558)">
<rect x="138" y="76" width="159" height="302" rx="8" fill="#F2F2F2"/>
<circle cx="217" cy="344" r="15" fill="white"/>
<circle cx="204" cy="94" r="2" fill="white"/>
<rect x="211" y="92" width="21" height="4" rx="2" fill="white"/>
<g clip-path="url(#clip2_0_558)">
<g clip-path="url(#clip3_0_558)">
<rect x="152" y="104" width="131" height="54" rx="4" fill="white"/>
<g clip-path="url(#clip4_0_558)">
<rect x="191" y="120.2" width="73" height="8.1" rx="3" fill="#DDE3E9"/>
<rect x="191" y="133.7" width="49" height="8.1" rx="3" fill="#DDE3E9"/>
</g>
<circle cx="173" cy="131" r="12" fill="#C5CFD6"/>
</g>
<g clip-path="url(#clip5_0_558)">
<rect x="152" y="166" width="131" height="42" rx="4" fill="white"/>
<g clip-path="url(#clip6_0_558)">
<rect x="191" y="178.6" width="73" height="6.3" rx="3" fill="#DDE3E9"/>
<rect x="191" y="189.1" width="49" height="6.3" rx="3" fill="#DDE3E9"/>
</g>
<circle cx="173" cy="187" r="12" fill="#C5CFD6"/>
</g>
<g clip-path="url(#clip7_0_558)">
<rect x="152" y="216" width="131" height="42" rx="4" fill="white"/>
<g clip-path="url(#clip8_0_558)">
<rect x="191" y="228.6" width="73" height="6.3" rx="3" fill="#DDE3E9"/>
<rect x="191" y="239.1" width="49" height="6.3" rx="3" fill="#DDE3E9"/>
</g>
<circle cx="173" cy="237" r="12" fill="#AFB9C5"/>
</g>
<g clip-path="url(#clip9_0_558)">
<rect x="152" y="266" width="131" height="42" rx="4" fill="white"/>
<g clip-path="url(#clip10_0_558)">
<rect x="191" y="278.6" width="73" height="6.3" rx="3" fill="#DDE3E9"/>
<rect x="191" y="289.1" width="49" height="6.3" rx="3" fill="#DDE3E9"/>
</g>
<circle cx="173" cy="287" r="12" fill="#C5CFD6"/>
</g>
</g>
</g>
<g clip-path="url(#clip11_0_558)">
<path fill-rule="evenodd" clip-rule="evenodd" d="M168.14 320C166.815 320 165.494 320.027 164.171 320.095C163.162 320.148 161.621 319.939 160.768 320.568C159.881 321.221 159.942 322.557 160.081 323.501C160.813 328.493 162.6 332.919 166.339 336.456C172.096 341.901 178.695 344.668 186.504 345.9C191.99 346.766 197.054 345.564 201.092 341.663C204.043 347.139 206.281 353.199 207.404 359.315C207.958 362.333 208.127 365.315 208.03 368.388C207.967 370.356 207.859 372.32 207.648 374.279C207.556 375.13 207.122 376.418 207.455 377.223C207.846 378.167 209.165 378.259 209.757 377.453C210.25 376.783 210.16 375.466 210.261 374.673C210.429 373.355 210.584 372.036 210.695 370.712C210.876 368.569 211.009 366.42 211 364.268C210.977 359.435 209.902 354.583 208.432 349.995C205.612 341.192 201.037 333.369 193.921 327.231C189.545 323.457 184.537 321.929 178.856 321.108C175.318 320.597 171.723 320 168.14 320" fill="#89C5CC"/>
<path fill-rule="evenodd" clip-rule="evenodd" d="M188.571 355C174.272 355 164.642 366.524 160.089 378.502C158.372 383.016 157.97 387.974 157.308 392.714C157.096 394.236 157.175 396.554 156.557 397.909C156.333 398.401 155.819 398.577 156.065 399.247C156.214 399.652 156.505 399.901 156.944 399.981C157.843 400.147 159.115 399.167 159.886 398.781C166.282 395.573 170.484 390.613 173.912 384.545C176.038 380.784 178.194 376.879 179.456 372.75C180.227 370.227 180.676 367.571 180.94 364.954C181.044 363.923 181.144 362.868 181.138 361.832C181.132 360.803 180.653 360.259 180.309 359.364C185.08 357.558 190.466 357.066 195.299 358.937C199.769 360.668 203.482 364.013 205.561 368.216C206.101 369.308 206.518 370.46 206.821 371.636C207.02 372.406 207.029 373.404 207.398 374.1C208.29 375.788 210.168 374.66 209.988 373.089C209.485 368.708 206.979 364.309 203.775 361.263C199.734 357.421 194.258 355 188.571 355" fill="#89C5CC"/>
<rect x="204" y="102" width="159" height="302" rx="8" fill="#DDE3E9"/>
<circle cx="283" cy="370" r="15" fill="white"/>
<circle cx="270" cy="120" r="2" fill="white"/>
<rect x="277" y="118" width="21" height="4" rx="2" fill="white"/>
<g clip-path="url(#clip12_0_558)">
<g clip-path="url(#clip13_0_558)">
<rect x="218" y="130" width="131" height="54" rx="4" fill="white"/>
<g clip-path="url(#clip14_0_558)">
<rect x="227" y="146.2" width="73" height="8.1" rx="3" fill="#DDE3E9"/>
<rect x="227" y="159.7" width="49" height="8.1" rx="3" fill="#DDE3E9"/>
</g>
<circle cx="335" cy="157" r="7" fill="#DDE3E9"/>
<circle cx="335" cy="157" r="3" fill="#F2F2F2"/>
</g>
<g clip-path="url(#clip15_0_558)">
<rect x="218" y="192" width="131" height="42" rx="4" fill="white"/>
<g clip-path="url(#clip16_0_558)">
<rect x="257" y="204.6" width="73" height="6.3" rx="3" fill="#DDE3E9"/>
<rect x="257" y="215.1" width="49" height="6.3" rx="3" fill="#DDE3E9"/>
</g>
<circle cx="239" cy="213" r="12" fill="#C5CFD6"/>
</g>
<g clip-path="url(#clip17_0_558)">
<rect x="218" y="242" width="131" height="42" rx="4" fill="white"/>
<g clip-path="url(#clip18_0_558)">
<rect x="227" y="254.6" width="73" height="6.3" rx="3" fill="#DDE3E9"/>
<rect x="227" y="265.1" width="49" height="6.3" rx="3" fill="#AFB9C5"/>
</g>
<circle cx="335" cy="263" r="7" fill="#DDE3E9"/>
<circle cx="335" cy="263" r="3" fill="#F2F2F2"/>
</g>
<g clip-path="url(#clip19_0_558)">
<rect x="218" y="292" width="131" height="42" rx="4" fill="white"/>
<g clip-path="url(#clip20_0_558)">
<rect x="257" y="304.6" width="73" height="6.3" rx="3" fill="#DDE3E9"/>
<rect x="257" y="315.1" width="49" height="6.3" rx="3" fill="#DDE3E9"/>
</g>
<circle cx="239" cy="313" r="12" fill="#C5CFD6"/>
</g>
</g>
</g>
<g clip-path="url(#clip21_0_558)">
<rect x="270" y="127" width="335" height="346" rx="8" fill="#F2F2F2"/>
<rect x="519" y="170" width="70" height="81" rx="8" fill="white"/>
<circle cx="554" cy="201" r="16" fill="#DDE3E9"/>
<rect x="529" y="221" width="50" height="6" rx="3" fill="#DDE3E9"/>
<rect x="537" y="231" width="34" height="6" rx="3" fill="#DDE3E9"/>
<path d="M270 135C270 130.582 273.582 127 278 127H597C601.418 127 605 130.582 605 135V154H270V135Z" fill="#C5CFD6"/>
<circle cx="283" cy="141" r="4" fill="#F2F2F2"/>
<circle cx="295" cy="141" r="4" fill="#F2F2F2"/>
<circle cx="307" cy="141" r="4" fill="#F2F2F2"/>
<g clip-path="url(#clip22_0_558)">
<rect x="519" y="259" width="70" height="194" rx="8" fill="white"/>
<g clip-path="url(#clip23_0_558)">
<rect x="537" y="277" width="34" height="26" rx="4" fill="#DDE3E9"/>
<rect x="537" y="311" width="34" height="25" rx="4" fill="#AFB9C5"/>
<rect x="537" y="344" width="34" height="25" rx="4" fill="#DDE3E9"/>
<rect x="537" y="410" width="34" height="25" rx="4" fill="#DDE3E9"/>
<rect x="537" y="377" width="34" height="25" rx="4" fill="#C5CFD6"/>
</g>
</g>
<g clip-path="url(#clip24_0_558)">
<g clip-path="url(#clip25_0_558)">
<rect x="286" y="171" width="225" height="47" rx="4" fill="white"/>
<g clip-path="url(#clip26_0_558)">
<rect x="295" y="185.1" width="167" height="7.05" rx="3" fill="#DDE3E9"/>
<rect x="295" y="196.85" width="112.096" height="7.05" rx="3" fill="#DDE3E9"/>
</g>
<circle cx="486.954" cy="194.5" r="7" fill="#DDE3E9"/>
<circle cx="486.954" cy="194.5" r="3" fill="#F2F2F2"/>
</g>
<g clip-path="url(#clip27_0_558)">
<rect x="286" y="226" width="225" height="39" rx="4" fill="white"/>
<g clip-path="url(#clip28_0_558)">
<rect x="295" y="237.7" width="167" height="5.85" rx="2.925" fill="#DDE3E9"/>
<rect x="295" y="247.45" width="112.096" height="5.85" rx="2.925" fill="#DDE3E9"/>
</g>
<circle cx="486.954" cy="245.5" r="7" fill="#DDE3E9"/>
<circle cx="486.954" cy="245.5" r="3" fill="#F2F2F2"/>
</g>
<g clip-path="url(#clip29_0_558)">
<rect x="286" y="273" width="225" height="39" rx="4" fill="white"/>
<g clip-path="url(#clip30_0_558)">
<rect x="295" y="284.7" width="167" height="5.85" rx="2.925" fill="#DDE3E9"/>
<rect x="295" y="294.45" width="112.096" height="5.85" rx="2.925" fill="#DDE3E9"/>
</g>
<circle cx="486.954" cy="292.5" r="7" fill="#DDE3E9"/>
<circle cx="486.954" cy="292.5" r="3" fill="#AFB9C5"/>
</g>
<g clip-path="url(#clip31_0_558)">
<rect x="286" y="414" width="225" height="39" rx="4" fill="white"/>
<g clip-path="url(#clip32_0_558)">
<rect x="295" y="425.7" width="167" height="5.85" rx="2.925" fill="#DDE3E9"/>
<rect x="295" y="435.45" width="112.096" height="5.85" rx="2.925" fill="#DDE3E9"/>
</g>
<circle cx="486.954" cy="433.5" r="7" fill="#DDE3E9"/>
<circle cx="486.954" cy="433.5" r="3" fill="#F2F2F2"/>
</g>
<g clip-path="url(#clip33_0_558)">
<rect x="286" y="367" width="225" height="39" rx="4" fill="white"/>
<g clip-path="url(#clip34_0_558)">
<rect x="295" y="378.7" width="167" height="5.85" rx="2.925" fill="#DDE3E9"/>
<rect x="295" y="388.45" width="112.096" height="5.85" rx="2.925" fill="#DDE3E9"/>
</g>
<circle cx="486.954" cy="386.5" r="7" fill="#DDE3E9"/>
<circle cx="486.954" cy="386.5" r="3" fill="#F2F2F2"/>
</g>
<g clip-path="url(#clip35_0_558)">
<rect x="286" y="320" width="225" height="39" rx="4" fill="white"/>
<g clip-path="url(#clip36_0_558)">
<rect x="295" y="331.7" width="167" height="5.85" rx="2.925" fill="#DDE3E9"/>
<rect x="295" y="341.45" width="112.096" height="5.85" rx="2.925" fill="#DDE3E9"/>
</g>
<circle cx="486.954" cy="339.5" r="7" fill="#DDE3E9"/>
<circle cx="486.954" cy="339.5" r="3" fill="#F2F2F2"/>
</g>
</g>
</g>
<path fill-rule="evenodd" clip-rule="evenodd" d="M687.986 297.376C684.041 294.701 678.796 294 674.076 294C655.64 294 638.311 300.84 623.341 311.032C615.138 316.616 607.8 323.728 601.322 331.132C597.582 335.407 594.248 340.03 591.887 345.173C590.294 348.644 589.201 352.261 588.46 355.991C587.557 360.537 586.839 365.175 586.515 369.797C586.387 371.617 585.33 381.274 588.356 381.438C588.338 381.676 588.334 381.903 588.353 382.106C581.782 392.38 577.723 404.42 573.958 415.835C570.683 425.769 567.764 435.786 565.87 446.063C563.375 459.592 561.737 473.326 560.958 487.05C560.791 489.999 560.676 492.95 560.577 495.903C560.493 498.422 560.408 500.941 560.325 503.461C560.233 506.284 559.736 509.534 560.185 512.34C560.576 514.784 562.691 514.414 562.785 511.982C562.898 509.045 562.879 506.102 563.008 503.163C563.179 499.262 563.355 495.361 563.546 491.461C564.875 464.369 569.86 437.675 579.061 412.084C582.785 401.728 587.051 391.925 592.535 382.345C597.356 373.922 603.156 365.767 609.084 358.173C614.845 350.792 620.836 343.583 627.895 337.33C633.624 332.256 639.926 327.835 646.404 323.722C654.631 318.498 662.843 313.401 671.755 309.391C676.388 307.307 681.108 305.441 685.777 303.44C686.617 303.081 687.517 302.732 688.325 302.315C691.02 300.925 690.133 298.832 687.986 297.376" fill="#C1DEE2"/>
<path fill-rule="evenodd" clip-rule="evenodd" d="M613.818 392C621.295 392 627.949 392.972 634.838 395.943C640.785 398.508 646.205 401.903 651.467 405.599C658.868 410.798 664.698 416.848 668.779 424.865C671.217 429.654 673.006 436.431 671.368 441.655C669.44 447.807 664.144 452.939 657.169 451.855C652.856 451.185 648.903 448.33 645.625 445.643C641.703 442.428 638.564 438.563 635.972 434.27C631.744 427.267 629.26 419.351 625.668 412.033C623.964 408.56 622.317 405.063 620.275 401.762C619.265 400.128 618.189 398.509 616.656 397.294C615.836 396.644 612.378 395.52 613.7 394.061C594.31 394.315 577.132 409.207 573.409 427.641C573.063 429.359 572.792 431.091 572.505 432.82C572.325 433.911 572.398 437.937 571.422 438.634C569.27 440.172 570.174 435.499 570.267 434.826C570.506 433.087 570.76 431.35 571.027 429.615C572.481 420.181 576.681 411.411 583.685 404.683C591.694 396.99 602.501 392 613.818 392" fill="#89C5CC"/>
<path fill-rule="evenodd" clip-rule="evenodd" d="M74.9379 368.736C93.6043 400.052 115.345 430.374 128.401 464.613C127.875 460.577 127.317 456.545 126.692 452.52C123.38 431.179 119.262 409.994 114.936 388.835C112.733 378.062 110.402 367.327 108.012 356.594C106.727 350.829 105.457 345.061 104.145 339.302C103.827 337.906 103.554 335.469 103.157 333C115.845 374.637 128.081 416.305 137.031 458.942C138.205 464.538 139.205 470.124 140.024 475.7C140.304 474.428 140.58 473.156 140.881 471.887C144.503 456.68 149.935 441.594 156.403 427.374C159.495 420.575 163.046 413.924 167.228 407.726C169.836 403.863 175.986 399.271 178.364 395.314C165.355 419.176 160.657 449.032 153.145 474.973C151.312 481.304 149.467 487.624 147.659 493.955C158.987 471.237 176.563 452.571 201 444.483C171.42 464.027 153.678 498.254 141.722 533.26C141.683 533.675 141.636 534.09 141.595 534.506C145.114 527.829 149.545 521.789 155.551 517.56C168.407 508.504 182.667 511.142 195.137 518.91C185.35 512.689 167.663 518.354 159.428 524.677C153.533 529.203 148.495 535.275 144.12 541.2C143.072 542.62 141.641 544.277 140.13 546.044C138.012 559.795 134.56 573.452 129.672 587C130.479 583.111 129.896 576.892 130.12 573.993C130.144 573.679 130.164 573.365 130.188 573.053C129.445 576.019 128.727 578.951 128.036 581.837C129.41 576.331 130.156 570.583 130.739 564.776C130.889 562.281 131.036 559.785 131.19 557.29C131.141 552.553 130.946 547.799 130.616 543.036C129.447 538.408 128.137 534.042 127.056 530.411C123.159 517.31 117.444 504.76 110.411 493.051C103.994 482.366 96.3124 472.688 87.4448 463.935C82.6643 459.217 77.6614 454.725 72.7289 450.17C70.9453 448.523 67.7572 444.474 65 442.363C85.0805 453.434 105.749 465.41 120.398 483.248C118.68 476.653 116.815 470.151 114.842 463.78C104.831 431.454 92.1913 397.953 74.9379 368.736Z" fill="#DDE3E9"/>
<ellipse cx="136" cy="578.5" rx="41" ry="32.5" fill="#C5CFD6"/>
<rect x="520" y="84" width="6" height="25" rx="3" fill="#DDE3E9"/>
<rect x="534" y="68" width="6" height="41" rx="3" fill="#DDE3E9"/>
<rect x="548" y="60" width="6" height="49" rx="3" fill="#DDE3E9"/>
<rect x="562" y="68" width="6" height="41" rx="3" fill="#DDE3E9"/>
<rect x="576" y="52" width="6" height="57" rx="3" fill="#C5CFD6"/>
<path fill-rule="evenodd" clip-rule="evenodd" d="M28 358.256C28 347.117 37.002 338 48 338V358.256L34.332 373C30.444 369.395 28 364.107 28 358.256Z" fill="#F2F2F2"/>
<path fill-rule="evenodd" clip-rule="evenodd" d="M47.4708 358H67.668C67.668 363.221 65.5382 368.113 62.1714 371.668C58.4682 375.556 53.1947 378 47.4708 378C42.1983 378 37.3722 375.891 33.668 372.557L47.4708 358Z" fill="#AFB9C5"/>
<path fill-rule="evenodd" clip-rule="evenodd" d="M68 358C68 347.002 58.998 338 48 338V358H68ZM38 338L46 356L28 348C29.78 343.334 33.777 339.78 38 338Z" fill="#C5CFD6"/>
<path fill-rule="evenodd" clip-rule="evenodd" d="M678.766 367.179C676.845 369.219 674.123 370.5 671.095 370.5C665.278 370.5 660.562 365.799 660.562 360C660.562 354.201 665.278 349.5 671.095 349.5V330C654.546 330 641 343.503 641 360C641 376.497 654.546 390 671.095 390C679.788 390 687.645 386.334 693 380.502L678.766 367.179Z" fill="#F2F2F2"/>
<path fill-rule="evenodd" clip-rule="evenodd" d="M671 330V349.5C676.799 349.5 681.5 354.201 681.5 360H701C701 343.503 687.497 330 671 330Z" fill="#AFB9C5"/>
<path fill-rule="evenodd" clip-rule="evenodd" d="M681.097 360C681.097 363.407 679.492 366.435 677 368.391L689.262 384C696.399 378.412 701 369.749 701 360H681.097Z" fill="#C5CFD6"/>
<path fill-rule="evenodd" clip-rule="evenodd" d="M488.051 91.5039C486.573 93.0679 484.479 94.05 482.15 94.05C477.675 94.05 474.048 90.4459 474.048 86C474.048 81.5541 477.675 77.95 482.15 77.95V63C469.42 63 459 73.3523 459 86C459 98.6477 469.42 109 482.15 109C488.837 109 494.88 106.189 499 101.718L488.051 91.5039Z" fill="#F2F2F2"/>
<path fill-rule="evenodd" clip-rule="evenodd" d="M482 63V77.95C486.446 77.95 490.05 81.5541 490.05 86H505C505 73.3523 494.648 63 482 63Z" fill="#AFB9C5"/>
<path fill-rule="evenodd" clip-rule="evenodd" d="M490.073 86C490.073 88.5552 488.869 90.8266 487 92.2931L496.196 104C501.55 99.8088 505 93.312 505 86H490.073Z" fill="#C5CFD6"/>
<path fill-rule="evenodd" clip-rule="evenodd" d="M124.007 108.986C124.003 108.996 123.999 109.006 123.993 109.018C123.999 109.008 124.007 108.968 124.007 108.986" fill="#C5CFD6"/>
<path fill-rule="evenodd" clip-rule="evenodd" d="M123.998 109.001C123.998 109.003 123.996 109.007 123.996 109.011C123.996 109.001 124.014 108.971 123.998 109.001" fill="#C5CFD6"/>
<path fill-rule="evenodd" clip-rule="evenodd" d="M124.067 108.832C124.053 108.872 124.035 108.91 124.019 108.95C124.027 108.93 124.035 108.914 124.043 108.894C123.835 109.414 123.967 109.076 124.067 108.832" fill="#C5CFD6"/>
<path fill-rule="evenodd" clip-rule="evenodd" d="M124.022 108.953C124.014 108.971 124.006 108.991 123.998 109.009C123.94 109.121 124.022 108.953 124.022 108.953" fill="#C5CFD6"/>
<path fill-rule="evenodd" clip-rule="evenodd" d="M123.999 109.002C123.999 109 123.999 109 124.001 108.998C123.999 109 123.999 109 123.999 109.002" fill="#C5CFD6"/>
<path fill-rule="evenodd" clip-rule="evenodd" d="M123.99 109.016C123.978 109.04 124.046 108.924 123.99 109.016Z" fill="#C5CFD6"/>
<path fill-rule="evenodd" clip-rule="evenodd" d="M123.998 109.002L124.002 108.998C124 109 124 109.002 123.998 109.002" fill="#C5CFD6"/>
<rect x="76" y="57" width="95" height="63" rx="4" fill="#DDE3E9"/>
<path fill-rule="evenodd" clip-rule="evenodd" d="M112 75L84 120H140L112 75Z" fill="#AFB9C5"/>
<path fill-rule="evenodd" clip-rule="evenodd" d="M139.5 87L115 120H164L139.5 87Z" fill="#C5CFD6"/>
<circle cx="150" cy="78" r="9" fill="white"/>
<path fill-rule="evenodd" clip-rule="evenodd" d="M600.993 535.986C600.997 535.996 601.001 536.006 601.007 536.018C601.001 536.008 600.993 535.968 600.993 535.986" fill="#C5CFD6"/>
<path fill-rule="evenodd" clip-rule="evenodd" d="M601.002 536.001C601.002 536.003 601.004 536.007 601.004 536.011C601.004 536.001 600.986 535.971 601.002 536.001" fill="#C5CFD6"/>
<path fill-rule="evenodd" clip-rule="evenodd" d="M600.933 535.832C600.947 535.872 600.965 535.91 600.981 535.95C600.973 535.93 600.965 535.914 600.957 535.894C601.165 536.414 601.033 536.076 600.933 535.832" fill="#C5CFD6"/>
<path fill-rule="evenodd" clip-rule="evenodd" d="M600.978 535.953C600.986 535.971 600.994 535.991 601.002 536.009C601.06 536.121 600.978 535.953 600.978 535.953" fill="#C5CFD6"/>
<path fill-rule="evenodd" clip-rule="evenodd" d="M601.001 536.002C601.001 536 601.001 536 600.999 535.998C601.001 536 601.001 536 601.001 536.002" fill="#C5CFD6"/>
<path fill-rule="evenodd" clip-rule="evenodd" d="M601.01 536.016C601.022 536.04 600.954 535.924 601.01 536.016Z" fill="#C5CFD6"/>
<path fill-rule="evenodd" clip-rule="evenodd" d="M601.002 536.002L600.998 535.998C601 536 601 536.002 601.002 536.002" fill="#C5CFD6"/>
<rect width="142" height="94" rx="4" transform="matrix(-1 0 0 1 672 459)" fill="#DDE3E9"/>
<path fill-rule="evenodd" clip-rule="evenodd" d="M619.274 486L660.329 553H578.219L619.274 486Z" fill="#AFB9C5"/>
<path fill-rule="evenodd" clip-rule="evenodd" d="M576.944 503.947L613.239 553H540.649L576.944 503.947Z" fill="#C5CFD6"/>
<circle r="13.5" transform="matrix(-1 0 0 1 561.5 490.5)" fill="white"/>
<path fill-rule="evenodd" clip-rule="evenodd" d="M246.204 223.763C251.677 229.443 257.58 233.061 260.797 233.092C268.866 233.17 276.955 205.756 274.031 193.311C271.106 180.866 242.355 168.079 235.065 189.231C232.535 196.572 233.889 204.092 237.073 210.785L218.352 247.347L242.539 253.827L246.204 223.763Z" fill="#D4A181"/>
<path fill-rule="evenodd" clip-rule="evenodd" d="M279.645 183.874C278.203 189.254 272.806 192.519 267.418 191.379C263.746 191.516 259.078 191.054 254.083 189.95C254.597 193.548 254.373 197.567 253.281 201.642C253.214 201.894 253.144 202.144 253.071 202.392C252.515 200.449 251.155 198.913 249.286 198.413C246.225 197.592 242.958 199.859 241.989 203.475C241.02 207.091 242.716 210.688 245.777 211.508C246.761 211.772 247.767 211.716 248.71 211.4C244.475 217.237 238.503 220.356 233 218.881C227.738 217.471 224.204 212.208 223.25 205.477C218.176 206.795 211.872 206.742 205.394 205.006C191.758 201.352 182.516 191.625 184.752 183.28C186.988 174.935 199.855 171.132 213.491 174.786C219.97 176.521 225.456 179.628 229.191 183.306C230.911 181.109 232.884 179.344 234.976 178.124C237.165 175.555 246.098 175.265 256.254 177.61C257.364 177.867 258.448 178.145 259.498 178.441C261.002 172.897 266.711 169.612 272.266 171.1C277.832 172.591 281.136 178.31 279.645 183.874Z" fill="#191847"/>
<path fill-rule="evenodd" clip-rule="evenodd" d="M187.547 339.535L225.765 471.176L243.741 570.013H261.783L243.773 339.535H187.547Z" fill="#BA8B72"/>
<path fill-rule="evenodd" clip-rule="evenodd" d="M187.547 339.535L225.765 471.176L243.741 570.013H261.783L243.773 339.535H187.547Z" fill="black" fill-opacity="0.1"/>
<path fill-rule="evenodd" clip-rule="evenodd" d="M170.371 339.535C173.038 407.921 171.986 445.221 171.389 451.435C170.792 457.648 167.404 499.26 144.315 572.099H163.08C193.658 502.222 204.333 460.61 207.84 451.435C211.347 442.259 221.705 404.959 236.827 339.535H170.371Z" fill="#D4A181"/>
<path fill-rule="evenodd" clip-rule="evenodd" d="M186.726 339.535C196.667 384.833 213.861 457.14 238.308 556.456H264.697C266.646 454.517 258.355 387.425 243.996 339.535H186.726Z" fill="#69A1AC"/>
<path fill-rule="evenodd" clip-rule="evenodd" d="M170.238 339.535C172.849 407.921 166.081 475.295 145.115 557.521H173.27C203.905 488.687 225.861 421.645 240.867 339.535H170.238Z" fill="#89C5CC"/>
<path fill-rule="evenodd" clip-rule="evenodd" d="M141.64 585.657L142.598 570.22C142.638 569.58 143.26 569.142 143.887 569.277C152.934 571.225 165.455 566.885 165.455 566.885C178.073 575.819 196.294 579.894 202.575 581.091C203.757 581.317 204.511 582.508 204.183 583.666L202.73 588.785H165.455H143.711L141.64 585.657Z" fill="#191847"/>
<path fill-rule="evenodd" clip-rule="evenodd" d="M239.713 585.657L240.671 570.22C240.711 569.58 241.334 569.142 241.96 569.277C251.007 571.225 263.528 566.885 263.528 566.885C276.147 575.819 294.367 579.894 300.648 581.091C301.83 581.317 302.584 582.508 302.256 583.666L300.804 588.785H263.528H241.784L239.713 585.657Z" fill="#191847"/>
<path fill-rule="evenodd" clip-rule="evenodd" d="M301.286 267.683L262.18 280.919L272.858 297.37L302.954 278.223C317.269 276.869 323.997 275.219 323.138 273.272C322.415 271.63 320.821 271.402 319.352 271.191C318.209 271.028 317.141 270.875 316.621 270.073C315.433 268.242 319.198 263.238 322.974 258.642C326.751 254.046 323.597 253.948 321.708 254.372C315.265 257.252 308.458 261.689 301.286 267.683ZM332.313 301.401L315.131 307.241L313.252 323.113C313.252 323.113 324.689 317.582 333.847 316.688C345.524 315.549 350.444 313.974 357.105 308.006C360.668 304.813 364.451 297.798 362.109 294.883C361.211 293.765 356.865 295.266 352.43 296.797C349.05 297.964 345.618 299.149 343.623 299.206C340.937 299.282 341.833 295.977 342.548 293.337C343.062 291.442 343.483 289.889 342.421 290.172C337.822 289.442 332.313 301.401 332.313 301.401Z" fill="#D4A181"/>
<path fill-rule="evenodd" clip-rule="evenodd" d="M245.578 273.507C258.093 275.578 275.216 275.878 294.978 267.734L299.215 284.525C284.81 294.525 265.81 301.478 250.811 298.397C238.991 295.969 235.453 280.536 245.578 273.507Z" fill="#2026A2"/>
<path fill-rule="evenodd" clip-rule="evenodd" d="M193.091 374.167C181.488 370.525 170.827 367.179 164.136 367.311C161.033 342.478 169.673 328.711 177.649 316.002C182.456 308.342 187.021 301.067 188.63 291.985C193.313 265.537 221.74 228.57 224.867 229.121L225.764 229.279L250.539 233.648L253.376 234.148C251.764 250.741 254.079 269.423 256.409 288.224C256.954 292.615 257.498 297.012 257.994 301.391C277.885 309.745 326.777 301.494 326.777 301.494C326.777 301.494 334.156 327.559 331.476 337.632C302.232 346.893 278.181 349.08 259.2 346.157C257.823 357.478 254.576 367.909 248.269 376.851C239.818 388.832 214.806 380.982 193.091 374.167Z" fill="#1F28CF"/>
<path fill-rule="evenodd" clip-rule="evenodd" d="M493.746 223.763C488.274 229.443 482.37 233.061 479.153 233.092C471.084 233.17 462.995 205.756 465.919 193.311C468.844 180.866 497.595 168.079 504.885 189.231C507.415 196.572 506.061 204.092 502.877 210.785L521.598 247.347L497.412 253.827L493.746 223.763Z" fill="#D4A181"/>
<path fill-rule="evenodd" clip-rule="evenodd" d="M460.305 183.874C461.747 189.254 467.144 192.519 472.532 191.379C476.204 191.516 480.872 191.054 485.867 189.95C485.353 193.548 485.577 197.567 486.669 201.642C486.736 201.894 486.807 202.144 486.88 202.392C487.435 200.449 488.795 198.913 490.664 198.413C493.725 197.592 496.992 199.859 497.961 203.475C498.93 207.091 497.234 210.688 494.173 211.508C493.189 211.772 492.184 211.716 491.24 211.4C495.476 217.237 501.448 220.356 506.95 218.881C512.213 217.471 515.746 212.208 516.7 205.477C521.774 206.795 528.078 206.742 534.556 205.006C548.193 201.352 557.434 191.625 555.198 183.28C552.962 174.935 540.095 171.132 526.459 174.786C519.981 176.521 514.494 179.628 510.759 183.306C509.039 181.109 507.066 179.344 504.974 178.124C502.785 175.555 493.853 175.265 483.696 177.61C482.586 177.867 481.502 178.145 480.452 178.441C478.948 172.897 473.239 169.612 467.684 171.1C462.118 172.591 458.814 178.31 460.305 183.874Z" fill="#191847"/>
<path fill-rule="evenodd" clip-rule="evenodd" d="M552.404 339.535L514.185 471.176L496.209 570.013H478.167L496.177 339.535H552.404Z" fill="#BA8B72"/>
<path fill-rule="evenodd" clip-rule="evenodd" d="M552.404 339.535L514.185 471.176L496.209 570.013H478.167L496.177 339.535H552.404Z" fill="black" fill-opacity="0.1"/>
<path fill-rule="evenodd" clip-rule="evenodd" d="M569.579 339.535C566.912 407.921 567.964 445.221 568.561 451.435C569.158 457.648 572.546 499.26 595.635 572.099H576.87C546.292 502.222 535.617 460.61 532.11 451.435C528.603 442.259 518.245 404.959 503.123 339.535H569.579Z" fill="#D4A181"/>
<path fill-rule="evenodd" clip-rule="evenodd" d="M553.224 339.535C543.283 384.833 526.089 457.14 501.642 556.456H475.253C473.304 454.517 481.596 387.425 495.954 339.535H553.224Z" fill="#69A1AC"/>
<path fill-rule="evenodd" clip-rule="evenodd" d="M569.712 339.535C567.101 407.921 573.869 475.295 594.835 557.521H566.68C536.046 488.687 514.089 421.645 499.083 339.535H569.712Z" fill="#89C5CC"/>
<path fill-rule="evenodd" clip-rule="evenodd" d="M598.31 585.657L597.352 570.22C597.313 569.58 596.69 569.142 596.063 569.277C587.016 571.225 574.495 566.885 574.495 566.885C561.877 575.819 543.656 579.894 537.376 581.091C536.194 581.317 535.439 582.508 535.768 583.666L537.22 588.785H574.495H596.239L598.31 585.657Z" fill="#191847"/>
<path fill-rule="evenodd" clip-rule="evenodd" d="M500.237 585.657L499.279 570.22C499.239 569.58 498.617 569.142 497.99 569.277C488.943 571.225 476.422 566.885 476.422 566.885C463.804 575.819 445.583 579.894 439.302 581.091C438.12 581.317 437.366 582.508 437.694 583.666L439.147 588.785H476.422H498.166L500.237 585.657Z" fill="#191847"/>
<path fill-rule="evenodd" clip-rule="evenodd" d="M438.664 267.683L477.771 280.919L467.092 297.37L436.996 278.223C422.681 276.869 415.953 275.219 416.812 273.272C417.536 271.63 419.13 271.402 420.598 271.191C421.742 271.028 422.809 270.875 423.329 270.073C424.517 268.242 420.752 263.238 416.976 258.642C413.2 254.046 416.354 253.948 418.242 254.372C424.685 257.252 431.492 261.689 438.664 267.683ZM407.637 301.401L424.819 307.241L426.698 323.113C426.698 323.113 415.261 317.582 406.103 316.688C394.426 315.549 389.506 313.974 382.846 308.006C379.282 304.813 375.499 297.798 377.841 294.883C378.739 293.765 383.086 295.266 387.521 296.797C390.901 297.964 394.332 299.149 396.327 299.206C399.013 299.282 398.118 295.977 397.402 293.337C396.888 291.442 396.468 289.889 397.529 290.172C402.129 289.442 407.637 301.401 407.637 301.401Z" fill="#D4A181"/>
<path fill-rule="evenodd" clip-rule="evenodd" d="M494.372 273.507C481.857 275.578 464.734 275.878 444.972 267.734L440.735 284.525C455.14 294.525 474.14 301.478 489.139 298.397C500.959 295.969 504.497 280.536 494.372 273.507Z" fill="#2026A2"/>
<path fill-rule="evenodd" clip-rule="evenodd" d="M546.859 374.167C558.462 370.525 569.123 367.179 575.814 367.311C578.917 342.478 570.277 328.711 562.302 316.002C557.495 308.342 552.929 301.067 551.321 291.985C546.637 265.537 518.21 228.57 515.084 229.121L514.186 229.279L489.411 233.648L486.574 234.148C488.186 250.741 485.871 269.423 483.541 288.224C482.997 292.615 482.452 297.012 481.956 301.391C462.066 309.745 413.173 301.494 413.173 301.494C413.173 301.494 405.794 327.559 408.474 337.632C437.718 346.893 461.769 349.08 480.751 346.157C482.127 357.478 485.374 367.909 491.682 376.851C500.132 388.832 525.144 380.982 546.859 374.167Z" fill="#1F28CF"/>
<defs>
<clipPath id="clip0_0_558">
<rect width="662" height="234" fill="white" transform="translate(39 358)"/>
</clipPath>
<clipPath id="clip1_0_558">
<rect width="159" height="302" fill="white" transform="translate(138 76)"/>
</clipPath>
<clipPath id="clip2_0_558">
<rect width="131" height="204" fill="white" transform="translate(152 104)"/>
</clipPath>
<clipPath id="clip3_0_558">
<rect width="131" height="54" fill="white" transform="translate(152 104)"/>
</clipPath>
<clipPath id="clip4_0_558">
<rect width="73" height="21.6" fill="white" transform="translate(191 120.2)"/>
</clipPath>
<clipPath id="clip5_0_558">
<rect width="131" height="42" fill="white" transform="translate(152 166)"/>
</clipPath>
<clipPath id="clip6_0_558">
<rect width="73" height="16.8" fill="white" transform="translate(191 178.6)"/>
</clipPath>
<clipPath id="clip7_0_558">
<rect width="131" height="42" fill="white" transform="translate(152 216)"/>
</clipPath>
<clipPath id="clip8_0_558">
<rect width="73" height="16.8" fill="white" transform="translate(191 228.6)"/>
</clipPath>
<clipPath id="clip9_0_558">
<rect width="131" height="42" fill="white" transform="translate(152 266)"/>
</clipPath>
<clipPath id="clip10_0_558">
<rect width="73" height="16.8" fill="white" transform="translate(191 278.6)"/>
</clipPath>
<clipPath id="clip11_0_558">
<rect width="207" height="302" fill="white" transform="translate(156 102)"/>
</clipPath>
<clipPath id="clip12_0_558">
<rect width="131" height="204" fill="white" transform="translate(218 130)"/>
</clipPath>
<clipPath id="clip13_0_558">
<rect width="131" height="54" fill="white" transform="translate(218 130)"/>
</clipPath>
<clipPath id="clip14_0_558">
<rect width="73" height="21.6" fill="white" transform="translate(227 146.2)"/>
</clipPath>
<clipPath id="clip15_0_558">
<rect width="131" height="42" fill="white" transform="translate(218 192)"/>
</clipPath>
<clipPath id="clip16_0_558">
<rect width="73" height="16.8" fill="white" transform="translate(257 204.6)"/>
</clipPath>
<clipPath id="clip17_0_558">
<rect width="131" height="42" fill="white" transform="translate(218 242)"/>
</clipPath>
<clipPath id="clip18_0_558">
<rect width="73" height="16.8" fill="white" transform="translate(227 254.6)"/>
</clipPath>
<clipPath id="clip19_0_558">
<rect width="131" height="42" fill="white" transform="translate(218 292)"/>
</clipPath>
<clipPath id="clip20_0_558">
<rect width="73" height="16.8" fill="white" transform="translate(257 304.6)"/>
</clipPath>
<clipPath id="clip21_0_558">
<rect width="335" height="346" fill="white" transform="translate(270 127)"/>
</clipPath>
<clipPath id="clip22_0_558">
<rect width="70" height="194" fill="white" transform="translate(519 259)"/>
</clipPath>
<clipPath id="clip23_0_558">
<rect width="34" height="158" fill="white" transform="translate(537 277)"/>
</clipPath>
<clipPath id="clip24_0_558">
<rect width="225" height="282" fill="white" transform="translate(286 171)"/>
</clipPath>
<clipPath id="clip25_0_558">
<rect width="225" height="47" fill="white" transform="translate(286 171)"/>
</clipPath>
<clipPath id="clip26_0_558">
<rect width="167" height="18.8" fill="white" transform="translate(295 185.1)"/>
</clipPath>
<clipPath id="clip27_0_558">
<rect width="225" height="39" fill="white" transform="translate(286 226)"/>
</clipPath>
<clipPath id="clip28_0_558">
<rect width="167" height="15.6" fill="white" transform="translate(295 237.7)"/>
</clipPath>
<clipPath id="clip29_0_558">
<rect width="225" height="39" fill="white" transform="translate(286 273)"/>
</clipPath>
<clipPath id="clip30_0_558">
<rect width="167" height="15.6" fill="white" transform="translate(295 284.7)"/>
</clipPath>
<clipPath id="clip31_0_558">
<rect width="225" height="39" fill="white" transform="translate(286 414)"/>
</clipPath>
<clipPath id="clip32_0_558">
<rect width="167" height="15.6" fill="white" transform="translate(295 425.7)"/>
</clipPath>
<clipPath id="clip33_0_558">
<rect width="225" height="39" fill="white" transform="translate(286 367)"/>
</clipPath>
<clipPath id="clip34_0_558">
<rect width="167" height="15.6" fill="white" transform="translate(295 378.7)"/>
</clipPath>
<clipPath id="clip35_0_558">
<rect width="225" height="39" fill="white" transform="translate(286 320)"/>
</clipPath>
<clipPath id="clip36_0_558">
<rect width="167" height="15.6" fill="white" transform="translate(295 331.7)"/>
</clipPath>
</defs>
</svg>
