<svg width="1011" height="888" viewBox="0 0 1011 888" fill="none" xmlns="http://www.w3.org/2000/svg">
<g opacity="0.504511">
<path fill-rule="evenodd" clip-rule="evenodd" d="M936.077 475.632C948.632 555.694 644.15 607.916 382.075 571.472C120 535.027 -0.226913 392.709 124.831 316.876C249.888 241.042 923.522 395.57 936.077 475.632Z" fill="#F2F2F2"/>
</g>
<path fill-rule="evenodd" clip-rule="evenodd" d="M559.418 142.011C564.155 138.923 571.505 140.891 576.275 142.713C578.112 143.416 582.808 145.664 586.292 148.194C585.831 146.44 585.421 144.671 585.062 142.888C583.589 135.556 582.574 128.085 582.086 120.657C581.959 118.72 582.124 116.555 582.292 114.362L582.292 114.362C582.349 113.619 582.406 112.873 582.452 112.131C582.261 111.956 582.132 111.714 582.078 111.386C582.058 111.522 582.047 111.631 582.038 111.714C582.024 111.848 582.017 111.915 581.992 111.922C581.967 111.93 581.923 111.872 581.834 111.756C581.8 111.711 581.759 111.658 581.71 111.596C578.186 107.101 575.226 102.035 574.819 96.4669C574.475 91.7443 579.025 82.8087 585.474 88.9945C588.359 91.757 587.61 111.159 583.276 112.348C584.434 118.777 585.89 125.195 587.713 131.532C587.986 131.49 588.265 131.487 588.541 131.519C588.514 129.943 588.512 128.224 588.587 127.633C589.237 122.541 594.224 112.203 602.164 114.21C608.265 115.753 604.525 122.103 602.449 124.882C599.107 129.356 595.326 131.294 590.538 133.621C590.442 134.583 589.715 135.142 588.857 135.323C592.063 145.557 596.275 155.537 601.787 164.965L601.934 164.366L601.934 164.366C602.634 161.504 603.45 158.168 603.966 157.467C606.668 153.799 612.649 149.32 618.164 151.49C629.747 156.054 617.174 169.171 607.313 170.598C606.903 171.081 606.469 171.47 606.008 171.692C607.924 174.538 609.972 177.325 612.163 180.039C615.449 184.123 618.981 188.193 622.683 192.24C622.797 189.074 624.263 182.02 624.678 181.262C627.207 176.659 634.495 171.922 640.408 175.192C647.058 178.879 641.028 185.846 637.235 188.999C635.681 190.292 627.991 195.029 625.279 195.051C634.224 204.593 644.098 213.972 654.136 223.012C653.305 218.965 652.218 207.82 652.34 206.583C652.963 200.199 657.882 189.987 667.573 192.475C676.974 194.885 672.815 205.494 669.597 210.551C667.648 213.611 664.952 216.721 661.702 218.856C661.116 219.24 660.35 219.554 659.587 219.868C658.666 220.246 657.746 220.623 657.146 221.122C656.61 221.567 656.446 222.078 656.283 222.585C656.111 223.12 655.94 223.65 655.336 224.093C660.761 228.957 666.224 233.72 671.609 238.351C674.15 240.536 676.737 242.679 679.35 244.796C680.779 244.29 682.817 244.955 682.711 246.682C682.695 246.933 682.627 247.149 682.536 247.347C684.515 248.919 686.508 250.479 688.516 252.022C688.47 251.572 688.483 250.938 688.576 250.063C687.13 251.817 687.19 249.262 687.236 247.314L687.237 247.314C687.253 246.625 687.267 246.013 687.213 245.693C687 244.441 686.726 243.202 686.451 241.964C685.865 239.32 685.28 236.685 685.31 233.956C685.373 228.165 689.672 218.456 698.72 221.905C707.039 225.07 704.012 233.654 700.874 239.036C698.887 242.441 696.169 245.482 693.327 248.393C692.821 248.913 692.258 249.616 691.702 250.313C690.875 251.347 690.061 252.366 689.459 252.746C697.183 258.653 705.089 264.387 712.996 270.121L712.997 270.122C716.538 272.69 720.08 275.259 723.605 277.843C723.758 277.275 723.885 276.713 723.994 276.187C723.774 276.399 723.474 276.499 723.089 276.479C722.986 276.045 722.838 275.467 722.66 274.774L722.659 274.773C720.482 266.302 713.851 240.503 731.807 245.503C744.962 249.177 735.676 271.642 725.864 279.5C731.819 283.888 737.717 288.331 743.477 292.908C747.644 296.219 751.689 299.644 755.58 303.183C753.567 298.6 751.67 292.668 752.915 287.947C754.728 281.077 763.222 274.59 771.515 278.5C781.854 283.394 773.9 290.079 766.441 296.347C762.633 299.548 758.953 302.64 757.904 305.33C770.273 316.939 780.832 329.835 787.888 344.526C795.561 360.502 802.684 381.968 798.745 399.842C799.472 391.983 796.361 382.115 794.176 375.185L794.176 375.184C793.879 374.241 793.599 373.352 793.347 372.529C790.065 361.781 785.401 351.323 779.255 341.534C769.411 325.857 756.407 312.549 741.395 300.466C737.977 301.482 734.264 303.365 731.189 304.924C729.303 305.88 727.657 306.714 726.466 307.153C720.721 309.268 709.693 312.3 706.033 305.637C702.435 299.086 711.619 295.423 717.311 293.954C722.812 292.537 727.77 292.708 732.901 293.87C724.955 287.857 716.815 282.034 708.677 276.213L708.676 276.212C707.179 275.142 705.682 274.071 704.187 272.999C702.118 274.447 699.833 276.54 697.407 278.762C689.707 285.814 680.585 294.169 672.438 287.343C660.143 277.041 683.657 266.571 693.676 267.388C694.905 267.488 696.095 267.709 697.256 268.011C687.039 260.608 676.981 253.053 667.468 244.967C665.761 245.233 663.043 247.377 659.779 249.952C652.442 255.741 642.342 263.71 634.734 257.435C629.242 252.906 631.122 245.852 636.431 241.818C641.76 237.767 649.487 237.774 656.054 239.138C658.893 239.725 661.512 240.845 663.954 242.211C664.006 242.213 664.058 242.215 664.108 242.218L664.113 242.218C664.161 242.22 664.209 242.223 664.257 242.225C654.897 234.183 645.479 225.962 636.408 217.46C636.25 217.503 636.087 217.548 635.925 217.593C635.376 218.167 634.458 218.376 633.617 218.25C633.153 218.385 632.68 218.525 632.196 218.667C625.012 220.784 615.777 223.505 608.616 222.331C603.345 221.468 598.563 217.81 603.024 213.307C606.651 209.645 616.492 210.171 621.291 211.039C623.633 211.463 626.182 212.69 628.74 213.922C629.815 214.44 630.891 214.958 631.954 215.418C632.23 214.943 632.712 214.637 633.261 214.491C624.304 205.947 615.757 197.108 608.005 187.884C605.658 188.194 603.056 189.074 600.372 189.982C593.913 192.165 586.982 194.509 582.007 189.462C574.663 182.009 588.475 177.659 595.041 178.367C597.258 178.606 599.444 179.142 601.554 179.851C595.913 172.257 591.605 164.14 588.579 155.615C588.549 155.628 588.522 155.641 588.495 155.654C588.453 155.674 588.41 155.695 588.357 155.714C588.403 155.693 588.443 155.671 588.483 155.649C588.513 155.633 588.542 155.617 588.574 155.601C588.272 154.748 587.982 153.892 587.706 153.032C587.193 152.788 586.714 152.609 586.484 152.535C589.467 154.291 576.882 155.15 574.525 155.311C569.314 155.666 562.334 155.798 558.511 152.155C555.301 149.094 555.488 144.572 559.418 142.011ZM799.304 399.867C799.083 402.457 798.535 404.829 797.511 406.785C798.279 404.558 798.868 402.244 799.304 399.867Z" fill="#F2F2F2"/>
<path opacity="0.2" fill-rule="evenodd" clip-rule="evenodd" d="M322.833 -23.4042C319.375 -25.6352 314.008 -24.2101 310.525 -22.8908C309.183 -22.382 305.753 -20.7553 303.209 -18.925C303.546 -20.193 303.846 -21.4721 304.109 -22.7617C305.188 -28.064 305.932 -33.4667 306.292 -38.8379C306.385 -40.2386 306.265 -41.8035 306.144 -43.389L306.144 -43.3896L306.144 -43.3904C306.103 -43.9274 306.061 -44.4667 306.028 -45.0028C306.167 -45.1296 306.261 -45.3045 306.301 -45.5416C306.316 -45.4433 306.324 -45.3645 306.33 -45.3043C306.341 -45.208 306.346 -45.1591 306.364 -45.1539C306.382 -45.1485 306.414 -45.1899 306.479 -45.2742C306.504 -45.3065 306.534 -45.3451 306.57 -45.3897C309.145 -48.6415 311.309 -52.3052 311.608 -56.3319C311.861 -59.7469 308.543 -66.2068 303.832 -61.7319C301.724 -59.7333 302.262 -45.7043 305.426 -44.8458C304.578 -40.1967 303.512 -35.5553 302.178 -30.9727C301.979 -31.0024 301.775 -31.005 301.574 -30.9817C301.594 -32.1208 301.597 -33.3639 301.542 -33.7913C301.07 -37.4732 297.433 -44.9471 291.635 -43.4932C287.18 -42.3758 289.907 -37.7855 291.422 -35.7764C293.86 -32.5419 296.62 -31.1421 300.115 -29.461C300.184 -28.7657 300.715 -28.3617 301.342 -28.2306C298.996 -20.8298 295.916 -13.6115 291.888 -6.79271L291.781 -7.22604C291.271 -9.295 290.677 -11.7073 290.3 -12.2138C288.329 -14.8649 283.964 -18.1021 279.936 -16.5312C271.477 -13.2275 280.651 -3.74661 287.851 -2.718C288.15 -2.36867 288.466 -2.0878 288.803 -1.9268C287.403 0.131569 285.907 2.14718 284.305 4.1109C281.904 7.06465 279.324 10.009 276.619 12.9361C276.537 10.6474 275.47 5.54665 275.167 4.99872C273.323 1.67105 268.003 -1.75142 263.685 0.614976C258.828 3.28299 263.227 8.31889 265.995 10.5976C267.13 11.5318 272.742 14.955 274.723 14.9696C268.187 21.8723 260.974 28.6573 253.64 35.1971C254.249 32.2706 255.047 24.2115 254.959 23.3172C254.507 18.7008 250.92 11.3182 243.843 13.1205C236.977 14.8663 240.01 22.536 242.357 26.1916C243.779 28.4041 245.746 30.652 248.118 32.1945C248.546 32.4724 249.105 32.6992 249.662 32.9256C250.335 33.1986 251.006 33.4711 251.444 33.8318C251.835 34.1535 251.954 34.5229 252.073 34.8892C252.198 35.2761 252.323 35.6596 252.764 35.9796C248.801 39.4985 244.81 42.9442 240.876 46.2942C239.02 47.8754 237.13 49.4259 235.222 50.9571C234.178 50.5919 232.69 51.0734 232.767 52.3219C232.778 52.5033 232.827 52.6597 232.894 52.8032C231.448 53.94 229.993 55.0687 228.526 56.1853C228.559 55.8602 228.55 55.4017 228.483 54.7687C229.538 56.0369 229.495 54.1891 229.462 52.7804C229.45 52.2827 229.44 51.8398 229.48 51.6086C229.636 50.7034 229.837 49.8071 230.038 48.9122L230.038 48.912C230.467 46.9999 230.895 45.094 230.875 43.1211C230.831 38.9331 227.696 31.9142 221.089 34.4109C215.013 36.7024 217.219 42.9085 219.508 46.7989C220.957 49.2608 222.941 51.4588 225.014 53.5628C225.384 53.9385 225.794 54.447 226.2 54.9506C226.804 55.6981 227.398 56.4346 227.837 56.7088C222.195 60.9828 216.42 65.1314 210.644 69.2803C208.057 71.1388 205.47 72.9973 202.895 74.8671C202.783 74.4571 202.691 74.0504 202.611 73.6702C202.772 73.8237 202.991 73.8953 203.272 73.8812C203.347 73.5667 203.456 73.149 203.586 72.6472C205.18 66.5215 210.033 47.8638 196.92 51.4852C187.313 54.146 194.084 70.3873 201.244 76.0664C196.895 79.241 192.587 82.456 188.379 85.767C185.335 88.1626 182.38 90.6405 179.537 93.2005C181.01 89.8864 182.397 85.5965 181.49 82.1831C180.169 77.2158 173.97 72.5278 167.913 75.3573C160.363 78.8998 166.167 83.7309 171.61 88.2612C174.389 90.5744 177.075 92.8092 177.839 94.754C168.804 103.152 161.088 112.481 155.93 123.106C150.321 134.66 145.11 150.185 147.979 163.108C147.451 157.426 149.727 150.289 151.325 145.277C151.543 144.595 151.748 143.951 151.932 143.357C154.333 135.584 157.743 128.02 162.235 120.94C169.429 109.601 178.929 99.9732 189.896 91.2314C192.391 91.9654 195.101 93.3253 197.346 94.4516L197.346 94.4517C198.722 95.1425 199.924 95.7454 200.793 96.0621C204.986 97.5899 213.038 99.7785 215.712 94.9599C218.342 90.2217 211.638 87.5753 207.483 86.5154C203.468 85.4926 199.847 85.6178 196.1 86.4593C201.904 82.1087 207.85 77.8958 213.795 73.6836L213.796 73.6832C214.889 72.9086 215.982 72.134 217.075 71.3586C218.585 72.4048 220.252 73.9174 222.023 75.5234C227.641 80.6206 234.298 86.6593 240.25 81.7207C249.231 74.2677 232.067 66.704 224.752 67.2984C223.854 67.3707 222.985 67.5311 222.138 67.7493C229.6 62.3933 236.948 56.9272 243.897 51.0771C245.143 51.2687 247.126 52.8182 249.509 54.6796C254.863 58.8631 262.234 64.6221 267.792 60.0827C271.804 56.8058 270.434 51.7054 266.56 48.7904C262.67 45.8629 257.028 45.8702 252.233 46.859C250.16 47.2841 248.247 48.0949 246.464 49.0829C246.388 49.0863 246.315 49.0901 246.242 49.0933C253.08 43.2757 259.96 37.3277 266.587 31.1769C266.702 31.2082 266.821 31.2405 266.94 31.2732C267.34 31.6878 268.01 31.8392 268.624 31.7473C268.961 31.8446 269.305 31.945 269.656 32.0472L269.661 32.0487C274.906 33.5771 281.648 35.5416 286.877 34.6908C290.726 34.0647 294.219 31.4185 290.963 28.1639C288.317 25.5171 281.132 25.9005 277.627 26.5292C275.917 26.8364 274.055 27.7251 272.187 28.6168L272.186 28.617C271.402 28.9915 270.616 29.3666 269.839 29.6993C269.638 29.3556 269.286 29.135 268.886 29.0292C275.43 22.8483 281.674 16.4539 287.338 9.78202C289.051 10.0057 290.951 10.641 292.91 11.2963C297.625 12.8732 302.685 14.5655 306.319 10.9145C311.685 5.52317 301.602 2.38225 296.808 2.89622C295.189 3.06952 293.592 3.45806 292.051 3.97102C296.173 -1.52173 299.322 -7.39238 301.536 -13.5575C301.557 -13.5484 301.577 -13.539 301.597 -13.5296C301.609 -13.5238 301.621 -13.5179 301.634 -13.5121C301.654 -13.5033 301.674 -13.4945 301.697 -13.4859C301.664 -13.5011 301.635 -13.517 301.606 -13.5328L301.606 -13.5329C301.584 -13.5447 301.562 -13.5563 301.539 -13.5677C301.76 -14.1845 301.972 -14.8041 302.174 -15.4259C302.549 -15.6023 302.899 -15.7321 303.066 -15.7856C300.887 -14.5151 310.076 -13.8978 311.797 -13.7823C315.601 -13.5272 320.698 -13.4334 323.491 -16.0695C325.836 -18.2837 325.701 -21.5535 322.833 -23.4042ZM147.409 162.598C147.577 164.324 148.077 165.899 149.06 167.19C148.338 165.715 147.797 164.178 147.409 162.598Z" fill="#C1DEE2"/>
<g opacity="0.7">
<path fill-rule="evenodd" clip-rule="evenodd" d="M780.822 339.77C794.474 339.062 811.359 347.031 812.815 361.871C813.873 372.653 813.546 383.405 815.183 394.172C816.492 402.776 819.261 411.036 823.038 418.874C826.67 426.411 834.203 432.827 836.162 440.879C837.411 446.01 836.712 453.227 834.99 458.245C832.896 464.347 834.009 463.865 838.182 468.985C846.359 479.018 853.723 489.307 858.93 501.29C866.43 518.55 871.348 538.725 868.564 557.618C868.21 560.017 867.79 568.627 864.486 569.229C860.796 569.902 862.522 564.978 862.719 563.387C863.974 553.238 865.09 544.367 863.575 534.059C857.732 494.288 829.201 468.085 810.623 434.331C809.602 432.59 807.446 428.445 805.947 425.711C803.58 421.393 801.201 413.179 797.997 409.977C791.963 403.947 797.511 416.071 798.686 418.385C800.173 421.313 801.808 424.425 803.332 426.99C810.302 438.882 818.082 451.862 825.28 464.121C794.147 471.214 772.221 433.785 763.866 409.178C756.982 388.905 748.746 341.505 780.822 339.77Z" fill="#69A1AC"/>
<path fill-rule="evenodd" clip-rule="evenodd" d="M963.805 302.121C940.983 303.932 926.331 318.992 919.511 340.056C915.835 351.407 915.413 363.068 913.37 374.734C910.298 392.284 903.686 405.585 890.764 418.089C886.762 421.961 883.812 425.937 881.716 430.191C877.554 434.438 873.931 439.244 871.269 445.12C867.869 452.624 866.907 461.628 870.832 469.109C871.888 471.121 874.521 475.158 877.25 476.992C867.033 498.752 861.415 522.584 862.048 546.386C862.431 560.753 863.132 575.127 863.951 589.477C864.171 593.33 865.426 599.693 867.31 593.231C869.035 587.32 866.872 578.041 866.672 571.867C865.698 541.786 864.866 514.435 877.248 486.331C878.547 483.385 879.924 480.463 881.357 477.565C881.442 477.516 881.52 477.457 881.599 477.4C881.653 477.442 881.703 477.487 881.758 477.529C881.849 477.365 881.975 477.171 882.121 476.954C882.532 476.529 882.891 475.993 883.233 475.395C884.331 473.873 885.574 472.084 885.581 471.105C885.581 471.098 885.577 471.086 885.577 471.078C893.242 458.565 902.022 446.742 910.99 435.149C910.923 435.234 920.718 421.897 919.204 429.272C918.474 432.827 911.269 439.595 908.359 443.36C901.922 451.735 894.363 462.348 888.082 472.61C887.237 473.096 886.043 475.48 885.179 477.257C884.702 478.157 884.257 479.064 883.82 479.855C906.077 487.208 923.39 472.396 935.196 455.168C935.21 455.147 935.223 455.126 935.236 455.106C938.829 450.346 942.509 445.619 947.107 441.856C954.777 435.576 962.992 434.468 972.036 431.378C996.7 422.951 1007.19 390.987 1010.52 367.27C1014.27 340.513 995.894 299.483 963.805 302.121Z" fill="#89C5CC"/>
<path fill-rule="evenodd" clip-rule="evenodd" d="M918.723 227.19C895.299 251.569 883.982 285.383 875.022 317.172C865.014 352.676 858.403 388.728 858.149 425.642C857.983 449.895 857.323 474.299 858.739 498.523C859.241 507.126 860.099 515.745 861.462 524.255C861.575 524.955 864.626 543.958 867.545 539.53C869.205 537.012 864.417 519.817 864.056 516.953C862.021 500.822 861.548 484.573 861.647 468.326C861.81 441.575 861.021 414.962 863.733 388.309C864.137 384.33 864.457 380.151 865.402 376.258C866.406 372.119 865.127 373.926 868.396 372.287C871.573 370.694 875.498 370.922 878.794 368.924C891.866 360.997 898.553 340.635 903.758 327.275C909.711 311.998 913.329 295.706 916.219 279.628C918.341 267.816 919.858 256.075 920.716 244.11C920.987 240.339 921.003 236.396 921.744 232.688C921.944 231.688 922.945 229.919 922.909 229.033C922.832 227.158 921.701 226.056 921.608 224.481C920.627 225.363 919.665 226.267 918.723 227.19Z" fill="#89C5CC"/>
<ellipse cx="864" cy="588.5" rx="73" ry="36.5" fill="#89C5CC"/>
<path fill-rule="evenodd" clip-rule="evenodd" d="M914.028 488.085C932.095 486.753 952.271 501.329 960.986 516.497C968.012 528.726 966.828 544.785 962.489 557.778C959.583 566.476 953.241 578.878 942.665 578.999C929.433 579.15 928.795 562.796 928.539 553.236C928.199 540.525 926.593 529.453 916.577 520.789C915.341 519.72 914.043 518.719 912.746 517.718C911.594 516.829 910.443 515.941 909.334 515.005C909.157 514.855 908.978 514.706 908.8 514.556C905.258 511.579 901.539 508.453 901.086 503.546C900.43 496.436 904.443 495.156 910.571 496.477C910.769 496.52 911.306 496.723 912.036 497C915.166 498.186 921.844 500.718 920.581 497.692C920.105 496.552 918.368 495.648 916.175 494.971C910.501 494.354 903.733 493.638 901.787 494.066C880.792 498.672 872.617 527.755 870.446 546.233C870.212 548.227 870.023 550.228 869.857 552.232H866C866.268 547.393 866.621 542.562 867.43 537.776C870.525 519.473 880.2 492.591 901.42 489.62C902.203 489.51 905.083 489.491 908.571 489.696C910.224 488.772 912.076 488.213 914.028 488.085Z" fill="#69A1AC"/>
</g>
<g opacity="0.5">
<path fill-rule="evenodd" clip-rule="evenodd" d="M200.223 206.445C204.425 200.453 212.224 185.235 218.138 183.094C221.948 181.715 220.837 195.98 220.884 198.7C221.067 209.224 220.043 219.681 218.778 230.116C216.498 248.937 209.045 265.697 198.822 281.715C193.562 289.957 187.391 298.3 178.845 303.442C174.912 305.811 170.179 306.207 166.294 308.248C161.769 310.623 164.233 308.703 162.194 313.417C159.363 319.963 158.457 328.408 157.147 335.392C151.132 367.455 136.568 536.945 139.093 569.558C139.317 572.449 135.287 573.14 135.085 569.611C134.016 550.9 143.27 421.322 147.94 378.947C152.609 336.571 157.334 299.134 162.071 284.474C167.819 266.687 178.199 245.298 186.84 228.711C190.854 221.006 195.229 213.565 200.223 206.445Z" fill="#69A1AC"/>
<path fill-rule="evenodd" clip-rule="evenodd" d="M231.414 414.278C242.349 406.25 254.186 421.401 244.29 429.43C238.82 433.868 233.101 432.29 229.882 428.591C227.792 431.139 225.836 433.803 223.956 436.052C218.229 442.909 212.817 449.928 207.644 457.111C196.898 472.035 187.689 487.801 178.06 503.278C168.558 518.554 159.132 533.908 150.519 549.571C143.223 562.841 133.498 578.452 131 593C134.79 562.146 149.172 532.49 166.298 505.291C183.285 478.314 202.779 448.853 229.081 427.564C226.404 423.627 226.33 418.008 231.414 414.278Z" fill="#C1DEE2"/>
<path fill-rule="evenodd" clip-rule="evenodd" d="M23.9132 339.031C30.0324 340.227 40.0312 354.07 45.0753 359.344C51.0699 365.612 56.5084 372.292 61.6349 379.292C72.6711 394.358 82.5411 410.376 90.9339 427.08C104.616 454.311 115.578 482.265 123.533 511.918C128.403 530.069 131.556 548.883 133.424 567.565C133.777 571.089 137.471 598.253 132.148 598.985C127.361 599.644 128.84 578.359 128.609 575.463C125.998 542.798 118.177 511.015 107.299 480.226C104.929 473.519 102.728 465.304 98.9381 459.268C96.2092 454.921 98.9186 456.437 94.1228 454.792C90.0049 453.378 85.3131 453.724 81.0963 451.993C71.9356 448.237 64.6006 440.944 58.1709 433.608C45.6758 419.351 35.774 403.928 30.6126 385.66C27.7495 375.532 25.1184 365.344 23.6583 354.902C23.2806 352.203 19.9718 338.26 23.9132 339.031Z" fill="#69A1AC"/>
<path fill-rule="evenodd" clip-rule="evenodd" d="M48.0614 108.716C71.1113 148.69 90.0528 192.601 102.283 237.076C109.694 264.023 114.876 291.675 120.025 319.126C127.997 361.632 135.538 404.134 137.683 447.395C139.841 490.906 144.108 541.092 129.861 583C136.978 540.452 130.202 495.162 129.002 452.35C128.429 431.912 126.768 411.674 124.588 391.355C122.473 371.645 119.018 352.029 115.801 332.474C114.234 322.95 112.588 313.441 110.912 303.937C110.411 301.101 110.2 292.687 108.401 290.75C106.591 288.8 97.3543 288.005 94.4544 286.574C88.6149 283.693 83.1221 279.6 78.2609 275.275C68.9418 266.984 60.8347 256.151 54.4359 245.472C39.6307 220.764 33.7116 190.61 34.0108 161.994C34.0682 156.438 43.0034 96.61 39.4149 95.7861C39.631 95.533 39.8353 95.2718 40.028 95C42.7448 99.5488 45.4108 104.128 48.0614 108.716Z" fill="#89C5CC"/>
<path fill-rule="evenodd" clip-rule="evenodd" d="M296.846 252.887C297.202 252.374 299.517 248.807 298.351 249.035C300.724 248.57 295.087 252.969 301 250.27C298.192 252.922 299.813 256.366 299.85 259.935C299.911 265.73 298.942 271.476 297.851 277.146C296.126 286.109 293.557 294.823 289.828 303.159C281.701 321.326 267.901 338.814 251.518 350.172C243.43 355.779 235.504 357.689 226.28 360.27C220.453 361.901 219.991 364.915 216.898 370.569C210.46 382.345 204.136 394.078 198.457 406.251C191.677 420.788 185.095 435.34 178.886 450.132C157.969 499.957 140.945 551.578 132.005 605C131.786 573.519 139.069 541.095 148.255 511.088C154.947 489.226 163.658 468.151 172.95 447.29C175.201 442.236 178.613 435.735 179.57 430.155C180.239 426.245 178.192 422.486 177.255 418.367C173.601 402.33 173.863 384.363 177.071 368.24C180.609 350.461 190.839 342.209 208.145 339.691C214.474 338.769 222.519 339.107 228.322 336.408C234.645 333.47 237.253 323.81 240.849 317.61C250.506 300.953 261.98 284.979 275.155 270.945C278.803 267.059 282.726 263.473 286.888 260.15C289.513 258.053 295.058 255.47 296.846 252.887Z" fill="#89C5CC"/>
<path fill-rule="evenodd" clip-rule="evenodd" d="M97.845 576.729C97.3997 573.71 99.7396 571 102.791 571H164.209C167.26 571 169.6 573.71 169.155 576.729L164.408 608.918C162.961 618.73 154.541 626 144.622 626H122.378C112.459 626 104.039 618.73 102.592 608.918L97.845 576.729Z" fill="#C1DEE2"/>
</g>
<ellipse cx="71.6456" cy="606.728" rx="24.2278" ry="19.2722" fill="#F2F2F2"/>
<path fill-rule="evenodd" clip-rule="evenodd" d="M78.3534 574.174C77.5269 575.603 76.79 577.061 76.139 578.54C76.116 575.493 76.2845 572.424 76.7446 569.313C77.531 563.983 78.7322 558.682 79.8609 553.388C80.6721 549.584 80.6208 542.752 83.6994 539.72C84.5436 539.065 84.7468 540.351 84.7468 540.908C84.7575 541.026 84.7445 538.632 83.9251 539.049C79.0544 541.564 77.4763 549.474 75.9169 553.434C73.6418 559.215 71.7061 565.124 70.909 571.138C70.7076 572.657 70.598 574.176 70.5727 575.692C70.4071 575.287 70.2516 574.878 70.0796 574.474C67.2684 567.881 63.4747 561.447 58.7431 555.514C57.5784 554.054 42.9342 539.649 41.7878 541.854C41.9009 542.174 42.1377 542.44 42.4988 542.651C42.52 542.675 42.5206 542.662 42.5083 542.626C43.3683 544.016 45.8137 546.161 46.5754 547.379C48.4923 550.442 49.9821 553.693 51.4961 556.882C54.6948 563.622 57.6621 570.429 60.5386 577.25C61.2084 578.839 61.9065 580.419 62.6187 581.994C55.2769 571.405 45.4826 561.791 32 556.287C36.6049 558.63 39.624 563.037 42.7339 566.412C46.4846 570.483 50.4351 574.444 54.1929 578.51C58.6253 583.307 63.8405 588.358 68.1038 593.666C72.2333 602.336 76.2462 611.015 78.7234 620.128C77.7084 616.98 78.6438 612.628 78.4701 609.324C78.3322 606.693 78.0247 604.084 77.6035 601.48C78.1243 602.655 78.5732 603.83 78.7764 604.924C78.5908 603.09 78.377 601.268 78.1472 599.455C78.7369 597.758 79.316 596.175 79.7072 594.87C81.7118 588.179 84.0988 581.602 87.3495 575.193C90.3574 569.264 93.8077 563.41 97.5673 557.735C99.321 555.089 101.099 552.453 102.866 549.812C104.022 548.083 105.123 545.316 106.733 543.659C96.3261 553.174 84.956 562.757 78.3534 574.174Z" fill="#F2F2F2"/>
<path fill-rule="evenodd" clip-rule="evenodd" d="M980.633 27.8273C977.65 17.876 970.646 10.0874 963.375 2.95101C949.22 -10.9418 941.607 -19.5317 936.562 -39.8544C933.595 -51.8066 930.575 -64.4724 921.165 -73.1439C914.313 -79.4587 902.521 -84.7642 893.358 -80.2423C879.261 -71.8283 875.475 -54.5614 876.897 -39.0999C878.659 -19.9365 887.61 -8.12037 904.807 -1.06202C914.497 2.91327 920.938 8.15857 926.198 17.2985C930.405 24.6071 932.858 33.759 938.145 40.3844C946.05 50.2885 955.941 54.6913 968.134 53.0462C956.714 32.0347 943.371 10.8259 927.278 -6.86484C925.771 -8.6434 916.886 -15.4508 918.678 -18.4819C920.652 -21.8194 929.774 -9.28248 929.709 -9.35824C934.386 -3.98972 938.714 1.71516 942.963 7.47478C942.953 7.48039 942.94 7.48346 942.928 7.48938C947.304 13.3995 951.644 19.3967 955.902 25.4692C957.624 28.0378 959.3 30.6392 960.905 33.3059C963.259 37.2188 966.996 48.3247 970.849 50.7307C971.673 51.2452 972.436 51.5328 973.148 51.6514C975.777 55.9557 978.335 60.2946 980.768 64.6847C987.121 76.1507 992.574 88.2571 995.076 101.202C995.807 104.981 995.29 119.114 997.869 121.842C1002.58 126.831 1001.2 117.223 1000.92 114.323C998.579 90.3099 989.958 69.8516 977.441 49.6635C981.286 44.6415 981.842 31.8593 980.633 27.8273Z" fill="#F2F2F2"/>
<path fill-rule="evenodd" clip-rule="evenodd" d="M819.131 39.4299C824.102 33.5727 836.052 32.5788 843.361 32.971C852.404 33.456 861.694 35.6576 870.298 38.3196C884.471 42.7043 898.244 50.706 910.727 58.4507C912.231 59.3839 930.764 70.5293 929.124 72.4853C927.498 74.4232 909.305 61.1841 905.25 58.9023C896.597 54.0317 888.662 48.2717 879.124 45.0553C869.249 41.7243 858.805 40.4054 848.42 40.4964C847.087 40.5082 842.74 39.579 842.646 41.5508C842.554 43.4792 849.748 42.4731 851.016 42.4846C856.255 42.5327 861.527 43.0258 866.691 43.9338C876.368 45.6346 885.465 49.0612 893.753 54.317C891.44 59.6938 885.897 62.173 880.081 60.8275C875.055 59.6639 870.156 56.7955 865.234 55.9659C861.845 55.3949 858.451 55.7346 855.164 56.6895C846.494 59.2092 841.494 64.371 831.961 60.7805C824.489 57.9657 811.991 47.8533 819.131 39.4299Z" fill="#F2F2F2"/>
<path fill-rule="evenodd" clip-rule="evenodd" d="M797.752 -54.9487C786.714 -55.7538 774.388 -46.9443 769.063 -37.7768C764.771 -30.3853 765.494 -20.6793 768.145 -12.8266C769.92 -7.56934 773.795 -0.0736771 780.257 -0.000629425C788.341 0.0908051 788.73 -9.79342 788.887 -15.5717C789.094 -23.2538 790.076 -29.946 796.195 -35.1823C796.95 -35.8285 797.743 -36.4336 798.536 -37.0386C799.239 -37.5757 799.943 -38.1127 800.62 -38.6783C800.728 -38.7687 800.837 -38.8592 800.946 -38.9499C803.11 -40.749 805.382 -42.6385 805.659 -45.6039C806.06 -49.9014 803.608 -50.6748 799.864 -49.8764C799.743 -49.8507 799.415 -49.7276 798.969 -49.5603C797.057 -48.8434 792.977 -47.3135 793.749 -49.1423C794.039 -49.8314 795.101 -50.3775 796.44 -50.7866C799.907 -51.1595 804.042 -51.5922 805.231 -51.3337C818.058 -48.5498 823.052 -30.9722 824.378 -19.8043C824.529 -18.5397 824.649 -17.2708 824.753 -16H827.105C826.94 -18.9846 826.725 -21.9643 826.221 -24.9155C824.331 -35.9777 818.419 -52.2251 805.455 -54.0206C804.977 -54.0875 803.217 -54.0988 801.086 -53.9751C800.076 -54.5335 798.945 -54.8711 797.752 -54.9487Z" fill="#F2F2F2"/>
<path fill-rule="evenodd" clip-rule="evenodd" d="M431.634 453.115C438.144 465.257 437.37 496.056 428.957 498.226C425.602 499.091 418.455 496.972 411.181 492.584L415.747 524.909H388.787L398.067 481.618C392.891 475.538 389.388 468.087 389.974 459.738C391.66 435.681 425.125 440.974 431.634 453.115Z" fill="#B28B67"/>
<path fill-rule="evenodd" clip-rule="evenodd" d="M434.18 458.567C433.913 456.993 433.26 455.246 432.733 453.757C432.054 451.837 431.027 450.106 429.896 448.475C427.767 445.404 425.214 442.631 422.394 440.33C417.244 436.126 410.688 433.701 404.241 434.488C400.986 434.886 397.826 436.129 395.136 438.197C392.707 440.065 390.369 442.816 387.223 443.013C383.799 443.228 380.661 440.204 377.915 438.337C374.819 436.231 371.526 434.697 367.908 434.101C361.846 433.102 356.152 435.151 351.975 440.128C347.529 445.424 344.298 453.19 347.217 460.207C347.76 461.511 348.458 462.611 349.46 463.522C350.378 464.358 351.782 465.247 352.154 466.583C352.55 468.002 351.368 469.833 350.91 471.114C350.253 472.949 349.714 474.876 349.905 476.87C350.22 480.146 352.277 483.273 354.45 485.426C356.66 487.616 359.38 488.873 362.286 489.452C364.226 489.839 366.209 490.052 368.181 489.907C369.16 489.835 370.024 489.563 370.972 489.346C371.895 489.136 372.41 489.381 373.193 489.887C376.828 492.239 380.736 493.149 384.934 492.799C388.476 492.504 392.559 491.645 395.449 489.216C398.659 486.518 398.595 482.798 397.84 478.824C398.64 479.221 400.853 479.466 399.53 477.885C399.006 477.258 398.016 477.003 397.344 476.635C396.561 476.206 395.766 475.651 395.158 474.952C392.704 472.126 395.183 466.376 398.268 465.428C402.852 464.02 403.878 470.507 407.15 472.185C409.032 473.15 411 471.831 412.409 470.485C414.298 468.681 415.584 466.291 416.695 463.86C417.611 461.857 418.462 459.826 419.395 457.834C419.831 456.903 421.339 454.273 420.581 453.22C423.864 452.565 427.521 453.931 430.349 455.721C431.517 456.461 432.408 457.277 433.032 458.584C433.165 458.864 433.456 459.696 433.821 459.73C434.501 459.794 434.247 458.963 434.18 458.567Z" fill="#191847"/>
<path fill-rule="evenodd" clip-rule="evenodd" d="M320.537 666.548C311.7 666.548 304.537 673.712 304.537 682.548V789.939C304.537 798.776 311.7 805.939 320.537 805.939H453.667C462.503 805.939 469.667 798.776 469.667 789.939V682.548C469.667 673.712 462.503 666.548 453.667 666.548H320.537ZM339.99 698.024C337.781 698.024 335.99 699.814 335.99 702.024V770.464C335.99 772.673 337.781 774.464 339.99 774.464H434.213C436.422 774.464 438.213 772.673 438.213 770.464V702.024C438.213 699.814 436.422 698.024 434.213 698.024H339.99Z" fill="#C5CFD6"/>
<path fill-rule="evenodd" clip-rule="evenodd" d="M581.055 800.319C558.908 773.254 543.922 753.19 536.099 740.126C522.703 717.757 511.739 697.853 508.279 690.249C500.028 672.118 527.273 663.628 533.439 672.085C542.772 684.885 562.703 725.163 593.233 792.919L581.055 800.319Z" fill="#B28B67"/>
<path fill-rule="evenodd" clip-rule="evenodd" d="M535.671 792.45L494.453 688.622C485.638 669.695 528.21 657.254 534.689 666.062C549.398 686.06 584.358 764.947 588.74 770.905L535.671 792.45Z" fill="#2F3676"/>
<path fill-rule="evenodd" clip-rule="evenodd" d="M425.894 771.628C433.923 759.908 463.127 720.477 479.034 704.162C483.605 699.474 488.065 694.974 492.284 690.781C504.822 678.317 529.792 699.266 517.276 710.619C486.107 738.891 440.63 777.057 436.83 780.46C431.505 785.23 420.848 778.993 425.894 771.628Z" fill="#B28B67"/>
<path fill-rule="evenodd" clip-rule="evenodd" d="M430.938 766.586C430.251 765.637 428.909 765.414 428.011 766.164C426.172 767.7 423.363 770.201 422.374 771.916C420.855 774.55 418.817 780.108 418.817 780.108C421.869 781.872 473.686 811.809 473.686 811.809C473.686 811.809 479.907 805.969 475.625 802.743C471.342 799.516 468.557 797.301 468.557 797.301L449.543 771.086C449.212 770.63 448.57 770.537 448.124 770.881L444.088 773.991C444.088 773.991 438.673 773.518 436.006 771.977C434.315 771 432.235 768.376 430.938 766.586Z" fill="#E4E4E4"/>
<path fill-rule="evenodd" clip-rule="evenodd" d="M574.397 794.909C573.328 794.431 572.054 794.908 571.651 796.008C570.826 798.258 569.643 801.829 569.643 803.81C569.643 806.85 570.656 812.684 570.656 812.684C574.181 812.684 634.014 812.684 634.014 812.684C634.014 812.684 636.483 804.513 631.162 803.862C625.842 803.21 622.322 802.686 622.322 802.686L592.758 789.497C592.244 789.267 591.641 789.508 591.426 790.029L589.485 794.741C589.485 794.741 584.559 797.041 581.48 797.041C579.527 797.041 576.415 795.81 574.397 794.909Z" fill="#E4E4E4"/>
<path fill-rule="evenodd" clip-rule="evenodd" d="M479.622 693.808C479.622 693.808 428.235 685.431 410.782 682.351C377.618 676.499 367.947 658.64 373.665 619.675L434.769 619.675C446.899 623.18 536.131 663.031 536.131 663.031C546.835 668.348 544.841 684.025 542.885 689.19C542.765 689.506 488.755 782.01 488.755 782.01L438.768 750.144L479.716 697.563C479.716 697.563 481.338 694.294 479.622 693.808Z" fill="#5C63AB"/>
<path fill-rule="evenodd" clip-rule="evenodd" d="M316.217 668.693C319.509 662.01 335.956 576 335.956 576L360.554 576.092C360.554 576.092 332.452 667.203 330.719 671.5C328.468 677.083 332.292 685.194 334.885 690.694C335.286 691.545 335.657 692.333 335.973 693.04C332.375 694.651 330.647 692.704 328.825 690.651C326.767 688.332 324.589 685.879 319.463 688.265C317.483 689.187 315.609 690.278 313.778 691.343C307.454 695.021 301.644 698.401 293.74 693.521C292.487 692.747 291.114 689.834 294.432 687.557C302.697 681.886 314.608 671.96 316.217 668.693ZM523.386 635.18L491.564 604.115L480.995 622.415L514.085 641.938C522.382 655.018 527.255 660.669 528.704 658.892C529.926 657.394 529.366 655.752 528.85 654.24C528.448 653.062 528.073 651.962 528.588 651.07C529.764 649.034 536.408 650.2 542.665 651.577C548.923 652.953 547.475 649.877 546.145 648.272C540.231 643.496 532.645 639.132 523.386 635.18Z" fill="#B28B67"/>
<path fill-rule="evenodd" clip-rule="evenodd" d="M410.91 506.172L420.624 504.505C435.926 558.633 514.547 595.529 519.373 615.764C521.143 623.184 515.806 626.936 518.563 629.196L505.937 638.445C503.799 635.949 499.236 640.515 489.708 637.321C480.18 634.127 410.91 570.265 410.91 506.172Z" fill="#DB2721"/>
<path fill-rule="evenodd" clip-rule="evenodd" d="M393.142 494.837C390.939 494.682 389.027 496.344 388.873 498.548L388.379 505.628C370.098 519.705 324.79 561.772 312.983 640.083C311.743 648.309 313.986 652.715 315.778 656.235C317.004 658.644 318.019 660.638 317.563 663.156L334.087 667.721C334.087 665.861 336.17 664.446 338.857 662.621C342.763 659.967 347.947 656.445 349.864 649.425C351.681 642.77 354.342 634.459 357.521 625.213C357.821 637.458 360.141 648.72 365.197 658.047C377.809 681.317 450.692 655.798 458.307 632.058C462.37 619.39 456.604 608.755 448.979 594.689C439.3 576.834 426.624 553.452 427.25 513.368L428.094 501.292C428.248 499.088 426.586 497.177 424.383 497.023L393.142 494.837Z" fill="#FF4133"/>
<path fill-rule="evenodd" clip-rule="evenodd" d="M707.339 382.151C700.82 394.302 701.594 425.125 710.02 427.296C713.38 428.162 720.537 426.041 727.822 421.65L723.25 454H750.25L740.956 410.676C746.139 404.591 749.647 397.134 749.061 388.779C747.372 364.703 713.858 369.999 707.339 382.151Z" fill="#B28B67"/>
<path fill-rule="evenodd" clip-rule="evenodd" d="M709.102 377.439C709.338 375.971 708.87 375.25 714.773 371.114C720.677 366.977 730.208 362.099 739.808 364.222C752.267 366.977 757.215 375.195 762.019 379.19C766.35 382.792 770.695 383.212 773.271 387.681C775.846 392.15 777.216 405.008 774.977 410.119C771.888 417.171 765.796 419.07 761.349 421.101C753.723 424.585 742.944 420.906 742.683 420.296C740.663 415.581 729.79 402.28 723.25 396.692C718.441 392.583 707.992 384.33 709.102 377.439Z" fill="#5C63AB"/>
<mask id="mask0_0_1" style="mask-type:alpha" maskUnits="userSpaceOnUse" x="709" y="363" width="68" height="60">
<path fill-rule="evenodd" clip-rule="evenodd" d="M709.102 377.439C709.338 375.971 708.87 375.25 714.773 371.114C720.677 366.977 730.208 362.099 739.808 364.222C752.267 366.977 757.215 375.195 762.019 379.19C766.35 382.792 770.695 383.212 773.271 387.681C775.846 392.15 777.216 405.008 774.977 410.119C771.888 417.171 765.796 419.07 761.349 421.101C753.723 424.585 742.944 420.906 742.683 420.296C740.663 415.581 729.79 402.28 723.25 396.692C718.441 392.583 707.992 384.33 709.102 377.439Z" fill="white"/>
</mask>
<g mask="url(#mask0_0_1)">
<path fill-rule="evenodd" clip-rule="evenodd" d="M746.162 411.501C759.073 395.578 762.111 376.375 762.111 376.375L766 378.835C766 378.835 761.217 399.82 746.162 411.501ZM741.25 420.25C762.144 401.891 767.127 381.26 767.127 381.26L771.625 382.586C771.625 382.586 765.426 405.657 741.25 420.25Z" fill="black" fill-opacity="0.2"/>
</g>
<path fill-rule="evenodd" clip-rule="evenodd" d="M768.213 549L725.941 687.467L705.464 805.223H689.408L711.046 549H768.213Z" fill="#B28B67"/>
<path fill-rule="evenodd" clip-rule="evenodd" d="M768.213 549L725.941 687.467L705.464 805.223H689.408L711.046 549H768.213Z" fill="black" fill-opacity="0.1"/>
<path fill-rule="evenodd" clip-rule="evenodd" d="M783.336 549C780.465 625.026 783.844 664.241 784.486 671.148C785.129 678.055 793.928 722.842 814.76 807.542L797.651 801.655C764.729 723.973 753.51 683.6 749.734 673.399C745.958 663.199 735.929 621.732 719.648 549H783.336Z" fill="#B28B67"/>
<path fill-rule="evenodd" clip-rule="evenodd" d="M811.761 800.204C812.831 799.725 814.106 800.203 814.509 801.303C815.334 803.556 816.517 807.132 816.517 809.115C816.517 812.159 815.504 818 815.504 818C811.979 818 752.146 818 752.146 818C752.146 818 749.676 809.819 754.997 809.167C760.318 808.515 763.838 807.989 763.838 807.989L793.401 794.784C793.916 794.554 794.519 794.795 794.734 795.317L796.675 800.035C796.675 800.035 801.601 802.338 804.68 802.338C806.632 802.338 809.743 801.106 811.761 800.204Z" fill="#E4E4E4"/>
<path fill-rule="evenodd" clip-rule="evenodd" d="M706.168 800.204C707.238 799.725 708.513 800.203 708.916 801.303C709.74 803.556 710.923 807.132 710.923 809.115C710.923 812.159 709.911 818 709.911 818C706.386 818 646.553 818 646.553 818C646.553 818 644.083 809.819 649.404 809.167C654.725 808.515 658.245 807.989 658.245 807.989L687.808 794.784C688.323 794.554 688.926 794.795 689.14 795.317L691.082 800.035C691.082 800.035 696.007 802.338 699.087 802.338C701.039 802.338 704.15 801.106 706.168 800.204Z" fill="#E4E4E4"/>
<path fill-rule="evenodd" clip-rule="evenodd" d="M773.83 549L755.857 619.547H700.959L709.145 549H773.83Z" fill="#69A1AC"/>
<path fill-rule="evenodd" clip-rule="evenodd" d="M783.94 549C792.811 575.642 787.31 619.547 787.31 619.547H731.289L715.885 549H783.94Z" fill="#89C5CC"/>
<path fill-rule="evenodd" clip-rule="evenodd" d="M613.054 436.841L657.059 443.56L648.798 463.004L613.255 448.331C597.801 449.573 590.347 449.082 590.894 446.857C591.356 444.981 593.006 444.44 594.525 443.942C595.709 443.555 596.814 443.193 597.217 442.245C598.136 440.082 593.201 435.48 588.331 431.313C583.461 427.145 586.792 426.451 588.876 426.547C596.257 428.396 604.316 431.827 613.054 436.841ZM639.359 548.395L671.235 517.352L681.815 535.633L648.672 555.145C640.359 568.214 635.478 573.861 634.027 572.086C632.804 570.59 633.365 568.949 633.882 567.438C634.285 566.261 634.661 565.162 634.145 564.272C632.968 562.238 626.315 563.404 620.048 564.781C613.781 566.158 615.232 563.084 616.564 561.48C622.488 556.708 630.086 552.346 639.359 548.395Z" fill="#B28B67"/>
<path fill-rule="evenodd" clip-rule="evenodd" d="M716.573 439.444C702.283 478.183 678.18 509.727 641.645 544.132L659.436 559.262C702.371 536.093 724.853 522.595 731.81 486.914C733.556 477.959 731.789 450.442 731.542 435.869L716.573 439.444Z" fill="#2026A2"/>
<path fill-rule="evenodd" clip-rule="evenodd" d="M787.538 551.848L701.756 563.904C701.756 563.904 718.432 471.073 714.416 437.916C714.279 436.789 716.081 434.516 717.037 434.646C727.529 436.073 738.336 429.483 738.336 429.483C763.261 459.274 775.942 498.482 787.538 551.848Z" fill="#F2F2F2"/>
<path fill-rule="evenodd" clip-rule="evenodd" d="M723.819 482.317C718.484 541.568 725.701 588.442 755.28 584.285L801.019 577.857C801.434 528.103 772.846 463.217 750.356 431.623C749.497 430.416 747.713 428.165 744.324 428.642L731.033 430.509C731.03 430.528 731.027 430.546 731.023 430.565C727.028 431.159 722.645 431.924 717.897 432.753C693.457 437.017 659.378 442.964 619.117 436.032L617.759 459.327C655.67 476.764 693.311 489.109 723.819 482.317Z" fill="#1F28CF"/>
</svg>
