<svg width="1011" height="840" viewBox="0 0 1011 840" fill="none" xmlns="http://www.w3.org/2000/svg">
<circle cx="694" cy="194" r="53" fill="#F2F2F2"/>
<circle cx="694" cy="152" r="3" fill="black" fill-opacity="0.1"/>
<circle cx="652" cy="194" r="3" fill="black" fill-opacity="0.1"/>
<circle cx="736" cy="194" r="3" fill="black" fill-opacity="0.1"/>
<circle cx="694" cy="236" r="3" fill="black" fill-opacity="0.1"/>
<path fill-rule="evenodd" clip-rule="evenodd" d="M694 158L696 193H692L694 158Z" fill="#AFB9C5"/>
<path fill-rule="evenodd" clip-rule="evenodd" d="M711.699 211.698L693.314 196.142L696.142 193.314L711.699 211.698Z" fill="#AFB9C5"/>
<circle cx="694" cy="194" r="4" fill="#C5CFD6"/>
<g opacity="0.345889" clip-path="url(#clip0_0_1)">
<path fill-rule="evenodd" clip-rule="evenodd" d="M760.306 484.966C749.796 395.227 185.9 222.021 81.2148 307.02C-23.4705 392.019 77.1714 551.54 296.553 592.389C515.935 633.239 770.816 574.705 760.306 484.966Z" fill="#F2F2F2"/>
<path fill-rule="evenodd" clip-rule="evenodd" d="M283.847 543.274C293.552 467.037 814.28 319.892 910.951 392.102C1007.62 464.312 983.153 616.198 780.565 650.901C577.978 685.604 274.142 619.511 283.847 543.274Z" fill="#DDE3E9"/>
</g>
<g clip-path="url(#clip1_0_1)">
<ellipse cx="210.5" cy="187.173" rx="42.5" ry="22.5" fill="#F2F2F2"/>
<ellipse cx="210.5" cy="177.673" rx="49.5" ry="25" fill="#DDE3E9"/>
<rect x="208" width="5" height="160" fill="#DDE3E9"/>
</g>
<g opacity="0.7" clip-path="url(#clip2_0_1)">
<ellipse cx="288" cy="140.842" rx="31.7677" ry="18.1579" fill="#F2F2F2"/>
<ellipse cx="288" cy="133.175" rx="37" ry="20.1754" fill="#DDE3E9"/>
<rect x="286" width="5" height="136" fill="#DDE3E9"/>
</g>
<path d="M775.897 346.236L814.322 324.27C816.782 322.863 819.802 322.863 822.262 324.27L914.838 377.192C919.822 380.041 922.897 385.342 922.897 391.082V716" stroke="#CBCBCB" stroke-width="8"/>
<rect x="892.897" y="715" width="59" height="7" rx="3" fill="#AFB9C5"/>
<path d="M740.396 335.335C753.283 322.447 774.178 322.447 787.065 335.335V335.335C799.952 348.222 799.952 369.116 787.065 382.004L767.266 401.803L720.597 355.134L740.396 335.335Z" fill="#C5CFD6"/>
<ellipse cx="744.721" cy="377.931" rx="33" ry="6.5" transform="rotate(45 744.721 377.931)" fill="#F2F2F2"/>
<path fill-rule="evenodd" clip-rule="evenodd" d="M199.258 484.173C202.123 483.823 205.18 483.947 207.844 485.077C213.509 487.482 215.119 494.174 215.041 499.614C214.957 505.468 213.714 511.863 218.165 516.58C220.211 518.748 222.756 520.408 224.765 522.617C226.912 524.977 228.597 527.677 229.844 530.577C232.134 535.903 233.258 542.167 231.164 547.754C229.32 552.674 224.681 557.114 225.683 562.708C226.729 568.543 232.612 573.004 236.29 577.351C240.453 582.269 244.286 588.556 244.916 595.006C245.519 601.188 242.828 607.44 238.699 612.113C230.448 621.451 218.045 626.028 205.54 626C200.23 625.988 194.219 625.748 189.637 622.895C188.22 622.013 187.473 621.023 186.631 619.648C185.877 618.414 184.88 617.612 183.725 616.739C181.19 614.822 179.359 612.239 178.19 609.347C173.652 598.114 177.279 584.218 183.631 574.243C185.136 571.88 186.369 569.605 185.637 566.789C184.874 563.848 182.999 561.196 181.34 558.669C179.701 556.17 177.83 553.787 176.549 551.087C175.207 548.257 174.829 545.294 175.066 542.198C175.512 536.381 178.023 531.013 181.578 526.336C185.002 521.83 189.022 517.518 189.031 511.615C189.041 505.357 184.858 499.791 186.64 493.429C187.378 490.795 188.86 488.092 191.249 486.513C193.539 484.998 196.564 484.502 199.258 484.173Z" fill="#DDE3E9"/>
<path fill-rule="evenodd" clip-rule="evenodd" d="M197.386 494.176C197.44 493.336 198.437 492.832 199.222 493.051C200.254 493.34 200.235 494.305 200.207 495.165C200.124 497.808 200.506 500.377 201.142 502.942C202.462 508.274 204.903 513.186 206.836 518.308C208.768 523.425 209.675 528.709 208.542 534.124C207.473 539.23 205.795 544.203 204.701 549.315C203.738 553.821 202.712 558.573 204.18 563.067C205.592 567.393 208.714 570.916 210.962 574.825C215.617 582.918 217.681 591.896 217.957 601.135C218.085 605.425 217.97 609.755 216.975 613.963C216.402 616.386 215.632 619.66 213.556 621.333C212.599 622.105 210.961 622.371 210.155 621.229C209.399 620.158 210.062 618.499 210.303 617.357C211.343 612.413 211.552 607.361 211.303 602.342C211.062 597.48 210.487 592.626 208.957 587.982C207.537 583.673 205.379 579.802 202.84 576.032C200.252 572.191 197.562 568.341 196.493 563.789C195.406 559.166 196.289 554.462 197.469 549.927C198.717 545.131 200.352 540.472 202.042 535.805C203.689 531.258 204.272 526.955 203.363 522.196C201.567 512.794 196.76 503.968 197.386 494.176Z" fill="#C5CFD6"/>
<path fill-rule="evenodd" clip-rule="evenodd" d="M274.892 495.582C278.437 496.659 281.958 498.395 284.485 501.118C289.858 506.909 288.209 515.661 285.243 522.053C282.05 528.933 277.212 535.849 279.94 543.743C281.193 547.372 283.301 550.659 284.49 554.316C285.761 558.224 286.309 562.294 286.239 566.372C286.11 573.862 284.118 581.855 278.708 587.373C273.945 592.232 266.158 595.07 264.377 602.206C262.518 609.651 267.061 617.988 269.078 625.041C271.36 633.024 272.533 642.453 269.862 650.409C267.303 658.034 260.842 664.028 253.528 667.406C238.915 674.156 221.949 673.117 207.296 666.578C201.075 663.801 194.151 660.391 190.285 654.633C189.09 652.853 188.736 651.294 188.476 649.23C188.243 647.378 187.497 645.911 186.605 644.278C184.644 640.692 183.862 636.684 184.02 632.656C184.634 617.011 196.234 602.464 208.956 593.972C211.971 591.96 214.618 589.912 215.249 586.2C215.909 582.325 215.111 578.213 214.501 574.361C213.899 570.554 212.964 566.763 212.889 562.902C212.811 558.858 213.933 555.157 215.848 551.619C219.445 544.972 225.227 539.93 231.87 536.247C238.267 532.7 245.262 529.692 248.393 522.715C251.712 515.32 249.747 506.561 255.2 499.964C257.458 497.233 260.625 494.807 264.262 494.182C267.749 493.583 271.558 494.57 274.892 495.582Z" fill="#DDE3E9"/>
<path fill-rule="evenodd" clip-rule="evenodd" d="M267.651 507.811C268.154 506.844 269.584 506.769 270.387 507.44C271.443 508.324 270.914 509.456 270.432 510.46C268.95 513.547 268.052 516.789 267.452 520.159C266.204 527.166 266.485 534.262 266.063 541.341C265.642 548.414 263.935 555.147 259.774 560.965C255.85 566.452 251.283 571.462 247.327 576.943C243.841 581.773 240.153 586.863 239.516 592.954C238.901 598.817 240.707 604.626 241.288 610.434C242.492 622.457 240.204 634.171 235.688 645.257C233.591 650.405 231.189 655.472 227.821 659.933C225.882 662.503 223.267 665.977 219.963 666.869C218.44 667.281 216.385 666.739 216.042 664.964C215.718 663.298 217.363 661.682 218.242 660.455C222.047 655.146 224.938 649.273 227.275 643.198C229.54 637.314 231.41 631.265 232.053 624.963C232.649 619.116 232.153 613.401 231.158 607.606C230.144 601.701 229.015 595.732 230.149 589.781C231.3 583.736 234.795 578.628 238.55 573.876C242.521 568.85 246.873 564.19 251.293 559.549C255.6 555.027 258.536 550.238 259.966 544.126C262.79 532.049 261.791 519.078 267.651 507.811Z" fill="#C5CFD6"/>
<path fill-rule="evenodd" clip-rule="evenodd" d="M165.306 540C171.2 540 176.382 543.124 179.953 547.558C184.133 552.748 184.977 559.086 186.675 565.272C187.519 568.35 188.972 571.406 191.517 573.498C193.833 575.4 196.772 575.78 199.543 576.71C205.082 578.567 209.555 583.041 211.321 588.499C213.476 595.158 211.193 601.873 211.586 608.622C211.947 614.819 218.058 618.685 222.974 621.656C227.821 624.586 232.189 627.328 233.649 633.035C235.197 639.088 235.716 645.844 233.572 651.823C230.002 661.779 219.552 666.163 209.456 666.842C200.293 667.459 188.772 666.491 181.891 659.84C177.773 655.86 176.282 650.293 176.467 644.755C176.582 641.311 177.264 637.899 178.146 634.571C178.771 632.213 179.616 629.864 179.856 627.427C180.496 620.942 174.503 619.697 169.401 617.916C162.918 615.654 158.38 611.38 155.224 605.425C152.285 599.881 151.052 593.658 152.814 587.554C153.714 584.437 155.346 581.61 157.559 579.205C158.533 578.146 159.907 577.263 160.786 576.151C161.607 575.112 161.428 573.766 161.145 572.55C159.837 566.931 155.762 562.278 154.305 556.668C152.989 551.605 153.767 545.304 158.395 542.038C160.395 540.627 162.862 540.016 165.306 540Z" fill="#C5CFD6"/>
<path fill-rule="evenodd" clip-rule="evenodd" d="M173.338 554.641C179.585 561.296 181.283 570.325 181.781 579.076C182.061 583.983 181.77 589.159 183.212 593.919C184.445 597.993 187.337 601.107 190.318 604.051C196.319 609.975 203.011 615.999 204.766 624.574C205.796 629.606 205.101 634.804 206.524 639.78C207.817 644.304 210.096 648.748 212.867 652.568C215.098 655.645 218.004 658 220.443 660.867C221.187 661.743 222.253 663.031 221.946 664.267C221.586 665.714 219.743 666.172 218.435 665.945C215.386 665.415 212.819 662.503 210.825 660.386C207.91 657.291 205.432 653.962 203.419 650.227C201.183 646.08 199.383 641.679 198.614 637.026C197.816 632.199 198.213 627.168 196.391 622.535C193.324 614.74 185.886 610.14 180.508 604.064C173.808 596.494 174.807 587.072 175.493 577.759C175.87 572.641 176.245 566.862 173.659 562.189C172.672 560.406 170.471 558.743 170.047 556.715C169.658 554.858 171.78 552.981 173.338 554.641Z" fill="#AFB9C5"/>
<ellipse cx="219" cy="693" rx="39" ry="29" fill="#89C5CC"/>
<rect x="315" y="609" width="38" height="9" rx="2" fill="#AFB9C5"/>
<path fill-rule="evenodd" clip-rule="evenodd" d="M332.217 536H334H335H336.783C337.301 551.419 339.707 566.085 344 580H350.5C359.06 580 366 586.94 366 595.5C366 604.06 359.06 611 350.5 611H317.5C308.94 611 302 604.06 302 595.5C302 586.94 308.94 580 317.5 580H325C331.44 559.128 332.217 536 332.217 536Z" fill="#DDE3E9"/>
<path fill-rule="evenodd" clip-rule="evenodd" d="M298.622 466.679C298.622 466.679 315.811 465 333 465C350.189 465 367.378 466.679 367.378 466.679L372 546.133C372 546.133 352.5 548 333 548C313.5 548 294 546.133 294 546.133L298.622 466.679Z" fill="#C5CFD6"/>
<path fill-rule="evenodd" clip-rule="evenodd" d="M271 722V640V618H292H375H396V640V722H375V640H292V722H271Z" fill="#F2F2F2"/>
<path fill-rule="evenodd" clip-rule="evenodd" d="M689.381 440.208C698.214 461.197 713.229 475.781 721.182 497.605C725.898 510.547 727.864 524.62 727.983 539.032C728.048 546.86 727.911 554.694 727.875 562.522C727.839 570.156 727.632 577.741 726.984 585.327C726.332 592.952 725.603 600.487 725.282 608.159C725.031 614.137 724.917 621.091 722.891 626.544C721.279 630.881 717.183 631.516 716.097 626.256C715.493 623.333 715.569 620.068 715.636 617.063C715.721 613.208 715.945 609.359 716.06 605.504C716.519 590.036 715.923 574.566 716.235 559.092C716.539 543.973 718.482 528.871 716.332 513.853C714.556 501.452 710.046 490.802 704.862 480.593C699.874 470.771 694.445 461.187 691.075 450.014C690.107 446.806 689.359 443.481 689 440.03C689.157 439.957 689.284 440.016 689.381 440.208Z" fill="#C1DEE2"/>
<path fill-rule="evenodd" clip-rule="evenodd" d="M686.974 481.617C688.723 482.88 689.7 484.728 690.882 486.551C692.352 488.817 694.081 490.863 695.551 493.131C698.615 497.86 701.308 502.879 704.102 507.799C709.406 517.137 713.433 527.091 715.427 537.895C717.495 549.092 718.052 560.648 718.919 572.012C719.839 584.056 720.765 596.188 720.887 608.279C720.942 613.696 721.235 619.446 720.584 624.825C720.179 628.173 718.668 631.027 715.261 631C708.025 630.942 704.627 622.927 703.208 616.354C701.119 606.674 700.702 596.393 701.033 586.494C701.432 574.558 703.504 562.802 704.4 550.912C705.35 538.325 704.814 525.96 700.486 514.109C698.3 508.12 695.763 502.274 693.484 496.325C692.514 493.792 691.719 491.19 690.409 488.831C688.951 486.208 687.142 483.826 686 481C686.324 481.206 686.649 481.411 686.974 481.617Z" fill="#89C5CC"/>
<path fill-rule="evenodd" clip-rule="evenodd" d="M770.334 456.518C770.556 456.345 770.778 456.173 771 456C770.361 458.693 769.207 460.88 768.324 463.341C767.531 465.554 767.129 468.058 766.595 470.477C765.34 476.158 763.89 481.711 762.706 487.44C760.36 498.777 760.804 510.99 762.342 523.568C763.795 535.45 766.092 547.313 767.187 559.192C768.095 569.043 768.485 579.202 767.619 588.601C767.031 594.984 765.103 602.606 759.848 601.962C757.374 601.659 756.084 598.681 755.564 595.32C754.729 589.922 754.554 584.246 754.229 578.878C753.502 566.896 753.358 554.951 753.214 543.092C753.078 531.904 752.705 520.494 753.452 509.587C754.173 499.063 756.428 489.58 759.653 480.83C761.351 476.22 762.97 471.502 764.878 467.108C765.793 465.001 766.911 463.139 767.827 461.033C768.563 459.339 769.148 457.601 770.334 456.518Z" fill="#C1DEE2"/>
<path fill-rule="evenodd" clip-rule="evenodd" d="M689.209 516.302C690.166 514.695 692.272 519.993 692.593 520.66C692.457 520.328 692.321 519.997 692.184 519.667C694.083 522.825 695.821 526.113 696.901 529.734C697.97 533.319 698.888 536.977 699.891 540.587C701.774 547.361 704.202 553.943 705.907 560.778C707.569 567.438 707.988 573.986 707.585 580.875C707.167 588.035 706.911 595.306 707.399 602.462C707.632 605.88 708.743 609.064 709.504 612.354C710.266 615.648 710.866 618.986 711.767 622.239C711.974 621.815 712 623.232 712 623.339C711.994 624.152 711.881 624.833 711.619 625.604C710.948 627.586 709.691 629.269 707.778 629.816C704.322 630.803 701.112 627.659 699.998 624.339C698.399 619.575 697.517 614.311 696.755 609.304C696.057 604.713 695.891 600.094 696.099 595.44C696.508 586.261 698.169 577.202 698.618 568.026C699.107 558.036 697.128 548.649 695.471 538.925C694.673 534.239 693.91 529.598 692.356 525.134C691.727 523.326 690.907 521.731 690.048 520.061C689.558 519.112 688.569 517.418 689.209 516.302Z" fill="#C1DEE2"/>
<path fill-rule="evenodd" clip-rule="evenodd" d="M717.252 500.697C716.856 512.142 716.172 523.5 714.646 534.824C713.089 546.38 711.3 557.897 709.802 569.463C708.343 580.722 706.815 592.168 707.018 603.585C707.168 611.993 705.774 626.219 715.113 630.369C724.572 634.572 726.601 616.623 727.222 610.699C728.412 599.333 728.027 587.847 727.449 576.419C726.856 564.689 725.866 553.02 724.64 541.334C723.277 528.353 722.208 515.314 721.349 502.296C720.925 495.857 720.82 489.429 720.937 482.988C721.048 476.911 720.817 470.77 718.656 465C718.543 465.082 718.431 465.164 718.318 465.246" fill="#69A1AC"/>
<path fill-rule="evenodd" clip-rule="evenodd" d="M766.083 536.955C764.382 539.433 762.667 541.887 761.061 544.512C758.186 549.209 755.587 554.432 754.805 561.147C753.169 575.2 754.481 590.379 754.798 604.863C754.863 607.822 754.489 610.693 755.655 613.51C756.713 616.064 758.691 618.01 760.576 618C764.611 617.977 763.995 608.095 764.002 603.746C764.014 596.123 763.159 588.422 763.233 580.806C763.306 573.26 763.765 565.694 764.859 558.528C765.967 551.275 767.589 544.309 769.729 537.81C770.026 536.908 772.158 529.937 770.144 531.139" fill="#89C5CC"/>
<path fill-rule="evenodd" clip-rule="evenodd" d="M748.262 462C745.609 462 745.625 475.226 745.546 476.925C745.257 483.055 745.325 489.188 745.143 495.319C744.744 508.701 744.254 522.2 742.243 535.426C741.161 542.547 739.907 549.636 738.557 556.702C737.204 563.789 735.387 570.867 734.497 578.044C733.642 584.943 734.125 591.977 734.242 598.91C734.359 605.885 734.57 612.874 735.484 619.788C735.709 621.494 735.974 623.195 736.257 624.891C736.492 626.305 736.355 628.058 736.754 629.401C737.393 631.552 740.133 632.256 741.978 631.92C746.97 631.009 750.159 624.74 751.865 620.16C754.043 614.311 755.199 607.967 756.339 601.804C757.631 594.821 758.388 587.732 758.743 580.623C759.466 566.175 758.539 551.712 757.504 537.31C756.928 529.301 756.263 521.327 755.246 513.367C754.232 505.441 752.932 497.55 752.086 489.601C751.471 483.825 750.865 478.04 750.467 472.241C750.371 470.859 750.291 462 748.262 462" fill="#69A1AC"/>
<path fill-rule="evenodd" clip-rule="evenodd" d="M744.941 558.139C744.508 544.253 738.927 483.259 737.657 466.467C737.339 462.264 734.282 444.765 733.885 440C732.81 441.347 732.901 462.309 732.913 467.126C732.926 471.891 732.335 476.576 732.031 481.315C731.721 486.151 724.572 548.601 723.645 553.247C721.799 562.491 720.564 571.976 719.611 581.428C718.683 590.639 717.24 600.358 718.482 609.618C718.767 611.75 719.219 613.848 719.955 615.806C720.749 617.922 721.294 619.879 721.932 622.093C722.958 625.659 724.815 628.789 727.668 630.262C733.517 633.281 736.658 626.447 738.251 620.497C740.793 610.995 742.426 601.338 743.191 591.359C744.037 580.318 745.287 569.255 744.941 558.139" fill="#89C5CC"/>
<rect x="683" y="599" width="91" height="91" rx="2" fill="white"/>
<rect x="673" y="609" width="10" height="113" rx="2" fill="#C5CFD6"/>
<rect x="723" y="609" width="10" height="113" rx="2" fill="#C5CFD6"/>
<rect x="774" y="609" width="10" height="113" rx="2" fill="#C5CFD6"/>
<path fill-rule="evenodd" clip-rule="evenodd" d="M316.181 444.584C323.455 448.971 330.602 451.091 333.957 450.226C342.37 448.056 343.144 417.257 336.634 405.115C330.125 392.974 296.66 387.681 294.974 411.738C294.388 420.088 297.892 427.539 303.068 433.619L293.787 476.909H320.747L316.181 444.584Z" fill="#B28B67"/>
<path fill-rule="evenodd" clip-rule="evenodd" d="M303.897 406.089C319.454 406.201 330.279 405.544 336.473 403.841C336.191 398.564 330.71 392.6 316.253 392.6C300.169 392.6 291.54 401.981 291.54 412.834C291.54 422.749 297.918 434.825 302.773 435.316C304.03 435.041 305.103 433.528 306.17 431.442C304.172 430.495 302.773 428.308 302.773 425.761C302.773 422.347 305.288 419.578 308.39 419.578C309.517 419.578 310.566 419.944 311.445 420.572C313.485 417.278 316.042 414.814 319.623 415.082L317.377 408.337L303.897 407.213V406.089Z" fill="#191847"/>
<path fill-rule="evenodd" clip-rule="evenodd" d="M426.573 655.275C424.483 678.141 426.572 727.291 427.696 741.469C428.403 750.379 440.539 748.047 441.671 740.915C441.863 739.707 442.645 735.463 443.812 729.13C449.533 698.075 464.507 616.801 464.533 597.039C464.545 587.977 444.385 580.73 436.319 591.677C429.688 587.016 420.276 585.766 414.473 595.18C410.08 602.306 399.642 622.538 388.51 646.164C378.758 666.861 363.519 717.102 363.519 717.102L376.456 723.017C376.456 723.017 408.413 671.601 428.534 635.553C427.866 641.756 427.202 648.397 426.573 655.275Z" fill="#B28B67"/>
<path fill-rule="evenodd" clip-rule="evenodd" d="M364.444 698.502L408.847 593.241C419.484 576.118 449.308 596.725 445.68 606.657C437.445 629.204 395.56 702.199 393.107 708.916L364.444 698.502Z" fill="#1F28CF"/>
<path fill-rule="evenodd" clip-rule="evenodd" d="M465.657 605.257C465.657 635.093 452.588 705.225 452.579 711.794L420.921 710.726C420.921 710.726 429.222 619.263 427.922 618.643C425.973 617.713 348.001 629.442 324.616 630.328C290.895 631.605 276.945 610.903 275.813 571.617H341.132C341.132 571.617 424.913 581.624 451.261 585.538C462.54 587.213 465.657 597.038 465.657 605.257Z" fill="#2B44FF"/>
<path fill-rule="evenodd" clip-rule="evenodd" d="M364.882 713.172C363.96 712.449 362.609 712.604 361.952 713.574C360.607 715.557 358.596 718.736 358.118 720.657C357.383 723.608 356.955 729.513 356.955 729.513C360.375 730.367 418.431 744.852 418.431 744.852C418.431 744.852 422.802 737.522 417.797 735.602C412.791 733.681 409.503 732.32 409.503 732.32L384.006 712.366C383.562 712.018 382.919 712.106 382.585 712.56L379.562 716.662C379.562 716.662 374.227 717.701 371.239 716.956C369.344 716.483 366.622 714.535 364.882 713.172Z" fill="#E4E4E4"/>
<path fill-rule="evenodd" clip-rule="evenodd" d="M428.847 723.302C427.778 722.825 426.504 723.302 426.101 724.402C425.276 726.652 424.093 730.223 424.093 732.203C424.093 735.244 425.106 741.077 425.106 741.077C428.631 741.077 488.464 741.077 488.464 741.077C488.464 741.077 490.933 732.907 485.612 732.255C480.291 731.604 476.772 731.079 476.772 731.079L447.208 717.89C446.694 717.66 446.091 717.901 445.876 718.422L443.935 723.135C443.935 723.135 439.009 725.435 435.929 725.435C433.977 725.435 430.865 724.204 428.847 723.302Z" fill="#E4E4E4"/>
<rect x="425.217" y="741.077" width="59.5367" height="7.86885" rx="3.93443" fill="#2F3676"/>
<path d="M261.21 588.08C261.21 582.557 265.687 578.08 271.21 578.08H393.873C399.396 578.08 403.873 582.557 403.873 588.08V644.403H265.21C263.001 644.403 261.21 642.612 261.21 640.403V588.08Z" fill="#2F3676"/>
<path fill-rule="evenodd" clip-rule="evenodd" d="M392.64 578.08H396.151C401.048 578.08 405.226 581.627 406.019 586.461L430.833 737.705H418.83" fill="#2F3676"/>
<ellipse cx="425.217" cy="739.953" rx="20.22" ry="20.2342" fill="#191847"/>
<path fill-rule="evenodd" clip-rule="evenodd" d="M275.813 757.939C322.964 757.939 361.187 719.689 361.187 672.506C361.187 625.322 322.964 587.073 275.813 587.073C228.663 587.073 190.44 625.322 190.44 672.506C190.44 719.689 228.663 757.939 275.813 757.939ZM275.813 742.201C314.278 742.201 345.46 710.998 345.46 672.506C345.46 634.014 314.278 602.81 275.813 602.81C237.348 602.81 206.167 634.014 206.167 672.506C206.167 710.998 237.348 742.201 275.813 742.201Z" fill="#191847"/>
<rect x="271.32" y="598.314" width="8.98667" height="148.384" fill="#191847"/>
<rect width="8.98982" height="148.332" rx="2" transform="matrix(0.706859 0.707355 -0.706859 0.707355 325.061 616.865)" fill="#191847"/>
<rect x="349.953" y="668.009" width="8.99297" height="148.28" rx="2" transform="rotate(90 349.953 668.009)" fill="#191847"/>
<rect width="8.98982" height="148.332" rx="2" transform="matrix(-0.706859 0.707355 -0.706859 -0.707355 331.416 721.788)" fill="#191847"/>
<path fill-rule="evenodd" clip-rule="evenodd" d="M422.032 518.363L377.68 524.417L385.638 544.302L421.626 530.024C437.138 531.556 444.639 531.187 444.128 528.918C443.698 527.005 442.049 526.428 440.53 525.896C439.347 525.481 438.243 525.095 437.855 524.126C436.97 521.913 442.012 517.327 446.982 513.181C451.952 509.035 448.616 508.272 446.519 508.333C439.067 510.082 430.905 513.425 422.032 518.363ZM206.257 627.384C209.549 620.701 238.353 534.69 238.353 534.69L262.951 534.783C262.951 534.783 222.492 625.894 220.759 630.191C218.508 635.774 222.332 643.885 224.925 649.385C225.326 650.236 225.698 651.024 226.013 651.731C222.415 653.342 220.687 651.395 218.865 649.342C216.807 647.023 214.629 644.57 209.503 646.956C207.523 647.878 205.649 648.968 203.818 650.033C197.494 653.712 191.684 657.092 183.78 652.211C182.527 651.438 181.154 648.525 184.472 646.248C192.737 640.577 204.648 630.651 206.257 627.384Z" fill="#997659"/>
<path fill-rule="evenodd" clip-rule="evenodd" d="M305.73 456.621L324.989 457.905C329.732 500.847 355.569 527.972 413.414 518.789L421.099 574.09C367.034 581.082 319.618 559.421 309.901 500.774C307.385 485.593 305.399 469.793 305.73 456.621Z" fill="#AFB9C5"/>
<path fill-rule="evenodd" clip-rule="evenodd" d="M209.631 616.246C223.003 545.048 251.226 489.967 294.302 451H296.15H296.213L296.228 451.018L325.409 457.706C325.409 492.783 333.207 518.992 340.704 544.19C343.942 555.072 347.123 565.765 349.597 576.902H270.788C269.677 589.661 268.996 602.776 268.64 616.246H209.631Z" fill="#C5CFD6"/>
<path fill-rule="evenodd" clip-rule="evenodd" d="M270.788 576.902C273.048 550.924 277.084 526.417 283.756 503.382C282.293 528.016 281.887 558.576 286.805 576.902H270.788Z" fill="black" fill-opacity="0.1"/>
<path fill-rule="evenodd" clip-rule="evenodd" d="M632.823 373.65C625.538 378.041 618.38 380.162 615.02 379.296C606.594 377.125 605.82 346.302 612.339 334.151C618.858 321.999 652.372 316.703 654.061 340.779C654.647 349.134 651.139 356.592 645.955 362.676L655.25 406H628.25L632.823 373.65Z" fill="#B28B67"/>
<path fill-rule="evenodd" clip-rule="evenodd" d="M631.473 343.438C629.137 339.96 626.895 337.308 623.979 335.767C612.109 335.955 610.719 333.827 610.719 326.655C612.636 325.283 619.401 322.973 626.976 322.323C630.841 321.217 635.419 321.425 639.829 323.27C645.273 324.815 649.883 328.141 651.919 334.369C659.286 347.083 653.695 360.317 646.16 364.838C644.154 362.461 642.403 360.158 640.842 357.954C642.096 356.728 642.875 355.018 642.875 353.125C642.875 349.397 639.853 346.375 636.125 346.375C635.851 346.375 635.581 346.391 635.315 346.423C635.147 351.084 634.457 366.853 632.644 372.33C630.506 378.788 618.031 380.374 613.68 380.374C609.922 380.374 610.05 376.815 610.142 374.265C610.155 373.897 610.167 373.551 610.167 373.239C610.167 372.588 611.015 372.589 611.972 372.591C613.216 372.594 614.644 372.597 614.644 371.17C614.644 369.615 612.496 368.422 610.573 367.355C609.373 366.689 608.261 366.072 607.814 365.447C606.404 363.472 605.929 360.81 608.057 360.81C609.22 360.81 610.815 361.48 612.735 362.287C615.633 363.505 619.27 365.033 623.271 365.033C629.881 365.033 631.453 343.704 631.473 343.438Z" fill="#191847"/>
<path fill-rule="evenodd" clip-rule="evenodd" d="M673.213 501L630.941 639.467L610.464 757.223H594.408L616.046 501H673.213Z" fill="#B28B67"/>
<path fill-rule="evenodd" clip-rule="evenodd" d="M673.213 501L630.941 639.467L610.464 757.223H594.408L616.046 501H673.213Z" fill="black" fill-opacity="0.1"/>
<path fill-rule="evenodd" clip-rule="evenodd" d="M688.336 501C685.465 577.026 688.844 616.241 689.486 623.148C690.129 630.055 698.928 674.842 719.76 759.542L702.651 753.655C669.729 675.973 658.51 635.6 654.734 625.399C650.958 615.199 640.929 573.732 624.648 501H688.336Z" fill="#B28B67"/>
<path fill-rule="evenodd" clip-rule="evenodd" d="M716.761 752.204C717.831 751.725 719.106 752.203 719.509 753.303C720.334 755.556 721.517 759.132 721.517 761.115C721.517 764.159 720.504 770 720.504 770C716.979 770 657.146 770 657.146 770C657.146 770 654.676 761.819 659.997 761.167C665.318 760.515 668.838 759.989 668.838 759.989L698.401 746.784C698.916 746.554 699.519 746.795 699.734 747.317L701.675 752.035C701.675 752.035 706.601 754.338 709.68 754.338C711.632 754.338 714.743 753.106 716.761 752.204Z" fill="#E4E4E4"/>
<path fill-rule="evenodd" clip-rule="evenodd" d="M611.168 752.204C612.238 751.725 613.513 752.203 613.916 753.303C614.74 755.556 615.923 759.132 615.923 761.115C615.923 764.159 614.911 770 614.911 770C611.386 770 551.553 770 551.553 770C551.553 770 549.083 761.819 554.404 761.167C559.725 760.515 563.245 759.989 563.245 759.989L592.808 746.784C593.323 746.554 593.926 746.795 594.14 747.317L596.082 752.035C596.082 752.035 601.007 754.338 604.087 754.338C606.039 754.338 609.15 753.106 611.168 752.204Z" fill="#E4E4E4"/>
<path fill-rule="evenodd" clip-rule="evenodd" d="M678.83 501L660.857 571.547H605.959L614.145 501H678.83Z" fill="#69A1AC"/>
<path fill-rule="evenodd" clip-rule="evenodd" d="M688.94 501C697.811 527.642 692.31 571.547 692.31 571.547H636.289L620.885 501H688.94Z" fill="#89C5CC"/>
<path fill-rule="evenodd" clip-rule="evenodd" d="M552.711 527.659L579.951 492.492L592.977 509.123L562.874 533.048C556.464 547.144 552.417 553.414 550.733 551.858C549.313 550.546 549.64 548.844 549.942 547.276C550.176 546.055 550.395 544.915 549.761 544.104C548.311 542.254 541.885 544.333 535.87 546.567C529.856 548.801 530.864 545.556 531.96 543.783C537.161 538.234 544.078 532.859 552.711 527.659ZM745.004 546.166C740.81 540.013 720.637 477.139 720.637 477.139L697.369 480.502C697.369 480.502 728.696 546.955 731.012 550.964C734.021 556.173 731.356 564.731 729.55 570.533C729.27 571.431 729.011 572.262 728.797 573.005C732.589 574.098 734.032 571.931 735.554 569.646C737.272 567.065 739.091 564.334 744.506 565.981C746.598 566.617 748.608 567.434 750.572 568.232C757.356 570.99 763.587 573.524 770.747 567.594C771.882 566.654 772.839 563.581 769.232 561.792C760.247 557.333 747.055 549.174 745.004 546.166Z" fill="#B28B67"/>
<path fill-rule="evenodd" clip-rule="evenodd" d="M640.772 388.923L630.907 388.627C620.134 432.316 596.458 473.965 559.881 513.573L596.433 547.057C630.992 493.123 649.485 439.889 640.772 388.923Z" fill="#191847"/>
<path fill-rule="evenodd" clip-rule="evenodd" d="M699.75 503.867L613.968 515.923C613.968 515.923 633.61 439.379 626.502 388.806L651.837 381.321C676.762 411.111 688.154 450.501 699.75 503.867Z" fill="#DDE3E9"/>
<path fill-rule="evenodd" clip-rule="evenodd" d="M743.899 535.085C719.67 430.753 652.406 381.241 652.406 381.241L652.388 381.262C652.383 381.257 652.379 381.251 652.375 381.245L650.686 381.483C647.669 382.013 641.503 383.156 641.503 383.156L637.757 401.872C641.35 434.632 644.648 534.979 644.648 534.979L700.798 527.087C701.339 531.633 701.774 536.26 702.088 540.961L743.899 535.085Z" fill="#2F3676"/>
<path fill-rule="evenodd" clip-rule="evenodd" d="M700.85 527.527C698.524 507.725 694.165 489.438 688.881 473.076C690.148 493.194 690.315 517.592 685.207 529.725L700.85 527.527Z" fill="black" fill-opacity="0.1"/>
<path fill-rule="evenodd" clip-rule="evenodd" d="M683.581 494.799L654.044 485.828L655.853 498.696L683.581 494.799Z" fill="white" fill-opacity="0.2"/>
<defs>
<clipPath id="clip0_0_1">
<rect width="926.295" height="376.2" fill="white" transform="translate(39.6204 284.188)"/>
</clipPath>
<clipPath id="clip1_0_1">
<rect width="99" height="210" fill="white" transform="translate(161)"/>
</clipPath>
<clipPath id="clip2_0_1">
<rect width="74" height="159" fill="white" transform="translate(251)"/>
</clipPath>
</defs>
</svg>
